<svg width="180" height="60" viewBox="0 0 180 60" fill="none" xmlns="http://www.w3.org/2000/svg">
<path d="M165.202 -4.91406e-05H14.302C13.752 -4.91406e-05 13.2085 -4.91405e-05 12.6599 0.00295086C12.2007 0.00595086 11.7451 0.0146659 11.2815 0.0220009C10.2743 0.0338536 9.26941 0.122465 8.27565 0.287066C7.28329 0.45525 6.32201 0.772325 5.42433 1.22757C4.52775 1.68666 3.70852 2.2832 2.99636 2.99556C2.28045 3.70591 1.68369 4.52698 1.22903 5.42719C0.7731 6.32561 0.456961 7.28836 0.291525 8.28217C0.124516 9.27473 0.0346476 10.2787 0.022725 11.2852C0.008805 11.7451 0.007335 12.2065 0 12.6665V47.3379C0.007335 47.8036 0.008805 48.2548 0.022725 48.7207C0.0346512 49.7271 0.12452 50.731 0.291525 51.7236C0.456504 52.7179 0.772662 53.6812 1.22903 54.58C1.68349 55.4773 2.28033 56.295 2.99636 57.0014C3.70582 57.717 4.52558 58.3139 5.42433 58.7695C6.322 59.226 7.28318 59.5449 8.27565 59.7157C9.26958 59.879 10.2743 59.9676 11.2815 59.9809C11.7451 59.9911 12.2007 59.997 12.6599 59.997C13.2085 60 13.752 60 14.302 60H165.202C165.741 60 166.289 60 166.828 59.997C167.285 59.997 167.754 59.9911 168.211 59.9809C169.216 59.9683 170.219 59.8797 171.211 59.7157C172.207 59.5437 173.171 59.2248 174.073 58.7695C174.971 58.3137 175.79 57.7167 176.499 57.0014C177.213 56.2923 177.811 55.4751 178.271 54.58C178.724 53.6806 179.038 52.7174 179.2 51.7236C179.367 50.7309 179.46 49.7272 179.479 48.7207C179.484 48.2548 179.484 47.8036 179.484 47.3379C179.496 46.7929 179.496 46.2509 179.496 45.6972V14.3041C179.496 13.7548 179.496 13.2099 179.484 12.6665C179.484 12.2065 179.484 11.7451 179.479 11.2851C179.46 10.2786 179.367 9.27481 179.2 8.28211C179.037 7.28887 178.724 6.32621 178.271 5.42713C177.346 3.62274 175.877 2.15399 174.073 1.22743C173.171 0.773302 172.207 0.456311 171.211 0.286931C170.219 0.121605 169.216 0.0329625 168.211 0.0217909C167.754 0.0144709 167.285 0.00568086 166.828 0.00275586C166.289 -0.000244141 165.741 -0.000244141 165.202 -0.000244141V-4.91406e-05Z" fill="#A6A6A6"/>
<path d="M12.6673 58.6875C12.2103 58.6875 11.7643 58.6817 11.3109 58.6715C10.3715 58.6592 9.43441 58.5774 8.50716 58.4268C7.64254 58.2779 6.80496 58.0009 6.02205 57.6049C5.24631 57.2123 4.53877 56.6974 3.92655 56.0801C3.30546 55.47 2.78837 54.7624 2.39578 53.9853C1.99886 53.2032 1.72417 52.3648 1.58128 51.4995C1.42697 50.5697 1.34348 49.6295 1.33153 48.687C1.32202 48.3707 1.30957 47.3173 1.30957 47.3173V12.6665C1.30957 12.6665 1.32283 11.6294 1.33161 11.3247C1.34304 10.3837 1.42605 9.44498 1.5799 8.51659C1.72306 7.64888 1.99796 6.80812 2.39509 6.02345C2.78624 5.24692 3.30045 4.53879 3.9178 3.92652C4.53445 3.30843 5.24425 2.79091 6.02131 2.39281C6.80243 1.99814 7.63842 1.7231 8.50129 1.57691C9.43159 1.42475 10.372 1.34249 11.3146 1.33082L12.668 1.3125H166.821L168.191 1.33155C169.125 1.34265 170.056 1.42418 170.978 1.57544C171.85 1.72346 172.694 2.00042 173.484 2.39721C175.041 3.19948 176.308 4.46874 177.107 6.0271C177.498 6.80637 177.768 7.64026 177.91 8.50048C178.065 9.43649 178.153 10.3826 178.17 11.3313C178.175 11.7561 178.175 12.2124 178.175 12.6665C178.187 13.229 178.187 13.7644 178.187 14.3042V45.6972C178.187 46.2421 178.187 46.7739 178.175 47.31C178.175 47.7978 178.175 48.2447 178.169 48.7046C178.151 49.6363 178.066 50.5655 177.913 51.4848C177.773 52.3564 177.499 53.2013 177.103 53.9898C176.707 54.7584 176.193 55.4599 175.579 56.0684C174.966 56.689 174.258 57.2069 173.48 57.6021C172.692 58.0011 171.849 58.2791 170.978 58.4268C170.051 58.5782 169.114 58.66 168.174 58.6715C167.735 58.6817 167.275 58.6875 166.828 58.6875L165.202 58.6905L12.6673 58.6875Z" fill="black"/>
<path fill-rule="evenodd" clip-rule="evenodd" d="M112.019 43.6143C109.567 43.6143 107.772 42.4015 107.566 40.5543L104.712 40.5541C104.893 43.9233 107.682 46.0546 111.812 46.0546C116.227 46.0546 119.003 43.872 119.003 40.3872C119.003 37.6626 117.415 36.1274 113.594 35.2236L111.541 34.7197C109.141 34.1265 108.159 33.3516 108.159 32.0347C108.159 30.3823 109.696 29.2471 111.941 29.2471C114.187 29.2471 115.724 30.3691 115.892 32.228H118.706C118.615 29.0142 115.917 26.8066 111.981 26.8066C108.004 26.8066 105.203 29.0142 105.203 32.228C105.203 34.8237 106.791 36.4234 110.211 37.2495L112.625 37.8311C115.04 38.4244 116.059 39.29 116.059 40.7359C116.059 42.4014 114.369 43.6143 112.019 43.6143ZM63.4536 40.7096H56.3535L54.6484 45.7442H51.6411L58.3662 27.1172H61.4907L68.2158 45.7442H65.1572L63.4536 40.7096ZM57.0889 38.3863H62.7169L59.9424 30.2154H59.8648L57.0889 38.3863ZM77.0723 45.8863C80.481 45.8863 82.7397 43.1749 82.7397 38.9547C82.7397 34.7462 80.4677 32.0216 77.021 32.0216C75.2474 31.9644 73.586 32.8868 72.6968 34.4224H72.6455V32.1637H69.9472V50.2369H72.7348V43.5103H72.7993C73.6507 45.0556 75.3103 45.9785 77.0723 45.8863ZM79.8745 38.9547C79.8745 36.2052 78.4536 34.3975 76.2856 34.3975C74.1558 34.3975 72.7231 36.2432 72.7231 38.9547C72.7231 41.691 74.1558 43.5235 76.2856 43.5235C78.4536 43.5235 79.8745 41.7291 79.8745 38.9547ZM92.0195 45.8863C95.4282 45.8863 97.687 43.1749 97.687 38.9547C97.687 34.7462 95.415 32.0216 91.9682 32.0216C90.1946 31.9644 88.5332 32.8868 87.644 34.4224H87.5927V32.1637H84.8945V50.2369H87.6821V43.5103H87.7466C88.598 45.0556 90.2576 45.9785 92.0195 45.8863ZM94.8218 38.9547C94.8218 36.2052 93.4009 34.3975 91.2329 34.3975C89.103 34.3975 87.6704 36.2432 87.6704 38.9547C87.6704 41.691 89.103 43.5235 91.2329 43.5235C93.4009 43.5235 94.8218 41.7291 94.8218 38.9547ZM125.02 28.9498V32.1637H127.602V34.3712H125.02V41.858C125.02 43.0211 125.537 43.5631 126.672 43.5631C126.978 43.5577 127.285 43.5362 127.589 43.4986V45.6929C127.078 45.7883 126.56 45.8315 126.041 45.8218C123.291 45.8218 122.219 44.7891 122.219 42.1553V34.3712H120.244V32.1637H122.219V28.9498H125.02ZM135.539 31.9967C131.614 31.9967 129.098 34.6817 129.098 38.9547C129.098 43.2393 131.589 45.9127 135.539 45.9127C139.489 45.9127 141.981 43.2394 141.981 38.9547C141.981 34.6817 139.476 31.9967 135.539 31.9967ZM139.141 38.9547C139.141 36.0235 137.797 34.2935 135.539 34.2935C133.28 34.2935 131.938 36.0367 131.938 38.9547C131.938 41.8975 133.28 43.6143 135.539 43.6143C137.797 43.6143 139.141 41.8975 139.141 38.9547ZM146.938 32.1637H144.279L144.279 45.7442H147.067V37.689C146.974 36.8741 147.242 36.0593 147.801 35.4586C148.359 34.8579 149.152 34.5313 149.972 34.5645C150.396 34.5521 150.819 34.609 151.224 34.733V32.1256C150.911 32.0553 150.59 32.0204 150.269 32.0215C148.737 31.963 147.373 32.9871 147.002 34.4752H146.938V32.1637ZM164.077 41.7554C163.702 44.2208 161.301 45.9127 158.229 45.9127C154.278 45.9127 151.826 43.2657 151.826 39.0191C151.826 34.7594 154.291 31.9967 158.112 31.9967C161.869 31.9967 164.232 34.5777 164.232 38.6954V39.6505H154.64V39.8189C154.551 40.83 154.9 41.8308 155.599 42.5667C156.298 43.3027 157.279 43.7029 158.293 43.6656C159.646 43.7923 160.922 43.0155 161.43 41.7554L164.077 41.7554ZM161.443 37.7022H154.653C154.651 36.7853 155.015 35.9055 155.664 35.2582C156.314 34.611 157.195 34.25 158.112 34.2554C159.022 34.2359 159.898 34.5967 160.53 35.251C161.163 35.9053 161.493 36.7937 161.443 37.7022Z" fill="white"/>
<path fill-rule="evenodd" clip-rule="evenodd" d="M88.6406 12.6555H89.9736V22.0466H88.6406V12.6555ZM59.8976 14.3233C59.0818 13.4618 57.9227 13.0116 56.7393 13.0965H53.5063V22.0468H56.7393C59.4053 22.0468 60.9507 20.4032 60.9507 17.5438C61.0999 16.3667 60.7134 15.1848 59.8976 14.3233ZM56.584 20.781H54.8965V14.3613H56.584C57.4252 14.3146 58.2433 14.6464 58.8145 15.2657C59.3857 15.8851 59.6502 16.7273 59.5356 17.562C59.6591 18.4002 59.3984 19.2494 58.8258 19.8739C58.2532 20.4984 57.4297 20.8316 56.584 20.781ZM62.521 18.6665C62.4052 17.4559 62.9857 16.2842 64.0191 15.6429C65.0525 15.0016 66.3601 15.0016 67.3935 15.6429C68.4269 16.2842 69.0074 17.4559 68.8916 18.6665C69.0096 19.8785 68.4296 21.0524 67.3953 21.6951C66.361 22.3377 65.0516 22.3377 64.0173 21.6951C62.983 21.0524 62.403 19.8785 62.521 18.6665ZM65.7085 16.3462C66.8628 16.3462 67.5205 17.2024 67.5205 18.6665H67.5205C67.5205 20.1365 66.8628 20.992 65.7085 20.992C64.5498 20.992 63.898 20.1424 63.898 18.6665C63.898 17.2024 64.5498 16.3462 65.7085 16.3462ZM77.3599 22.0466H75.9771L74.5811 17.072H74.4756L73.0855 22.0466H71.7158L69.854 15.2922H71.2061L72.416 20.4462H72.5156L73.9043 15.2922H75.1831L76.5718 20.4462H76.6773L77.8813 15.2922H79.2144L77.3599 22.0466ZM82.0635 15.2922H80.7803L80.7803 22.0466H82.1133V18.0952C82.0654 17.6457 82.2163 17.1977 82.5263 16.8687C82.8363 16.5397 83.2745 16.3625 83.7261 16.3836C84.7119 16.3836 85.1836 16.9234 85.1836 18.0088V22.0466H86.5166V17.6741C86.6143 17.0137 86.4064 16.3446 85.9516 15.8559C85.4968 15.3672 84.8444 15.1118 84.1787 15.1619C83.3189 15.092 82.5095 15.5752 82.1631 16.3652H82.0635V15.2922ZM93.325 15.6428C92.2915 16.2841 91.7109 17.4558 91.8267 18.6665C91.7088 19.8785 92.2889 21.0525 93.3232 21.6951C94.3576 22.3377 95.667 22.3377 96.7014 21.6951C97.7358 21.0525 98.3159 19.8785 98.198 18.6665C98.3137 17.4558 97.7331 16.2841 96.6996 15.6428C95.6662 15.0015 94.3585 15.0015 93.325 15.6428ZM96.8262 18.6665C96.8262 17.2024 96.1684 16.3462 95.0142 16.3462C93.8555 16.3462 93.2037 17.2024 93.2037 18.6665C93.2037 20.1424 93.8555 20.992 95.0142 20.992C96.1684 20.992 96.8262 20.1365 96.8262 18.6665ZM102.114 18.1201C100.507 18.2198 99.6013 18.9207 99.6013 20.1365C99.6036 20.713 99.8496 21.2616 100.279 21.6467C100.708 22.0319 101.279 22.2176 101.853 22.1579C102.671 22.1958 103.446 21.7906 103.882 21.0974H103.987V22.0467H105.27V17.4317C105.27 16.0049 104.315 15.1619 102.622 15.1619C101.09 15.1619 99.9983 15.906 99.8621 17.0662H101.153C101.301 16.5887 101.816 16.3155 102.56 16.3155C103.471 16.3155 103.943 16.7183 103.943 17.4317V18.0147L102.114 18.1201ZM103.943 19.5593V18.9947L102.294 19.1001C101.364 19.1624 100.942 19.4788 100.942 20.0742C100.942 20.6821 101.469 21.0359 102.194 21.0359C102.623 21.0794 103.052 20.9467 103.382 20.6684C103.711 20.3901 103.914 19.9898 103.943 19.5593ZM109.826 15.1802C108.119 15.1802 107.022 16.5323 107.022 18.6665C107.022 20.8059 108.108 22.158 109.826 22.1579C110.697 22.1901 111.514 21.7361 111.947 20.9795H112.052V22.0466H113.33V12.6555H111.997V16.3652H111.897C111.495 15.6022 110.688 15.1405 109.826 15.1802ZM108.399 18.6665C108.399 20.0991 109.075 20.9612 110.204 20.9612C111.327 20.9612 112.022 20.0867 112.022 18.6724C112.022 17.2647 111.32 16.3777 110.204 16.3777C109.082 16.3777 108.399 17.2456 108.399 18.6665H108.399ZM120.343 15.6429C119.31 16.2842 118.729 17.4559 118.845 18.6665C118.727 19.8785 119.307 21.0524 120.341 21.6951C121.376 22.3377 122.685 22.3377 123.719 21.6951C124.754 21.0524 125.334 19.8785 125.216 18.6665C125.331 17.4559 124.751 16.2842 123.717 15.6429C122.684 15.0016 121.376 15.0016 120.343 15.6429ZM123.844 18.6665C123.844 17.2024 123.187 16.3462 122.032 16.3462C120.874 16.3462 120.222 17.2024 120.222 18.6665C120.222 20.1424 120.874 20.992 122.032 20.992C123.187 20.992 123.844 20.1365 123.844 18.6665ZM128.287 15.2922H127.004V22.0466H128.337V18.0952C128.289 17.6457 128.44 17.1977 128.75 16.8687C129.06 16.5397 129.498 16.3625 129.95 16.3836C130.936 16.3836 131.407 16.9234 131.407 18.0088V22.0466H132.74V17.6741C132.838 17.0137 132.63 16.3446 132.175 15.8559C131.721 15.3672 131.068 15.1118 130.403 15.1619C129.543 15.092 128.733 15.5752 128.387 16.3652H128.287V15.2922ZM140.273 13.6106V15.323H141.736V16.4458H140.273V19.919C140.273 20.6265 140.564 20.9363 141.228 20.9363C141.398 20.9358 141.567 20.9255 141.736 20.9055V22.0159C141.497 22.0587 141.254 22.0815 141.011 22.084C139.529 22.084 138.938 21.5625 138.938 20.2603V16.4458H137.866V15.323H138.938V13.6106H140.273ZM144.878 12.6555H143.557L143.557 22.0466H144.89V18.1018C144.849 17.6383 145.014 17.1803 145.342 16.8501C145.67 16.52 146.127 16.3514 146.591 16.3894C147.532 16.3894 148.035 16.9358 148.035 18.0146V22.0466H149.369V17.6858C149.458 17.0288 149.248 16.3666 148.798 15.8797C148.349 15.3927 147.705 15.1317 147.043 15.1677C146.17 15.0969 145.347 15.5808 144.984 16.3777H144.878V12.6555ZM157.142 20.2229C156.768 21.497 155.535 22.3202 154.215 22.177C153.314 22.2008 152.449 21.8275 151.848 21.1561C151.247 20.4847 150.972 19.5832 151.095 18.6907C150.975 17.7957 151.249 16.8927 151.847 16.2157C152.444 15.5387 153.306 15.1542 154.209 15.1619C156.089 15.1619 157.222 16.4459 157.222 18.5669V19.032H152.453V19.1067C152.411 19.6079 152.582 20.1037 152.924 20.4721C153.267 20.8405 153.749 21.0473 154.252 21.0417C154.904 21.12 155.539 20.7965 155.859 20.2229L157.142 20.2229ZM155.864 18.0462H152.453C152.447 17.5804 152.629 17.1319 152.958 16.8025C153.288 16.473 153.736 16.2906 154.202 16.2964C154.661 16.2859 155.104 16.4699 155.421 16.8031C155.737 17.1363 155.898 17.5878 155.864 18.0462Z" fill="white"/>
<path fill-rule="evenodd" clip-rule="evenodd" d="M34.7278 13.0803C34.873 14.9767 34.2733 16.8549 33.056 18.3163C31.875 19.7851 30.0856 20.6312 28.2009 20.6118C28.081 18.7701 28.6982 16.9562 29.9165 15.5697C31.1502 14.1645 32.8681 13.2757 34.7278 13.0803ZM40.6883 24.2228C38.5204 25.5557 37.1863 27.9062 37.1535 30.4509C37.1566 33.33 38.8807 35.9282 41.5323 37.0497C41.0224 38.7063 40.2537 40.2719 39.2547 41.6885C37.9131 43.6953 36.5065 45.6559 34.274 45.6922C33.2122 45.7167 32.4954 45.4113 31.7486 45.0932C30.9695 44.7613 30.1578 44.4155 28.8875 44.4155C27.5402 44.4155 26.6921 44.7725 25.8741 45.1167C25.1672 45.4142 24.4829 45.7022 23.5184 45.7422C21.3922 45.821 19.7673 43.6003 18.3769 41.6123C15.598 37.5524 13.4341 30.1708 16.3351 25.1482C17.6974 22.7002 20.2445 21.1468 23.0445 21.0564C24.2504 21.0316 25.4075 21.4963 26.422 21.9038C27.1978 22.2155 27.8902 22.4936 28.4572 22.4936C28.9557 22.4936 29.6288 22.2264 30.4132 21.9151C31.6489 21.4247 33.1608 20.8246 34.7016 20.9863C37.0958 21.0612 39.3144 22.2607 40.6883 24.2228Z" fill="white"/>
</svg>
