<?xml version="1.0" ?><svg viewBox="0 0 512 512" xmlns="http://www.w3.org/2000/svg"><g id="flat"><rect height="464" rx="24" style="fill:#e4e4e2" width="272" x="120" y="24"/><rect height="384" style="fill:#41b2ff" width="272" x="120" y="56"/><path d="M260,312H208V288l-32,24H164a12,12,0,0,0-12,12v72a12,12,0,0,0,12,12h96a12,12,0,0,0,12-12V324A12,12,0,0,0,260,312Z" style="fill:#fbb540"/><path d="M341.657,300.269l-11.314-11.314L344,275.3V232h16v46.612a8,8,0,0,1-2.343,5.657Z" style="fill:#0094f6"/><path d="M184,246.612H164a12,12,0,0,1-12-12v-24a12,12,0,0,1,12-12h20Z" style="fill:#0a71cd"/><path d="M328,246.612h20a12,12,0,0,0,12-12v-24a12,12,0,0,0-12-12H328Z" style="fill:#0a71cd"/><path d="M352,240H336V178.612a84,84,0,1,0-168,0V232H152V178.612a100,100,0,1,1,200,0Z" style="fill:#0a71cd"/><rect height="48" rx="16" style="fill:#0a71cd" transform="translate(381.792 -133.352) rotate(54.083)" width="32" x="305.52" y="283.306"/><rect height="16" style="fill:#ea9d2d" width="16" x="176" y="336"/><rect height="16" style="fill:#ea9d2d" width="40" x="208" y="336"/><rect height="16" style="fill:#ea9d2d" width="24" x="176" y="368"/><path d="M272,472H240a8,8,0,0,1,0-16h32a8,8,0,0,1,0,16Z" style="fill:#c3c3c3"/><rect height="16" style="fill:#ea9d2d" width="16" x="216" y="368"/><rect height="80" rx="24" style="fill:#0094f6" width="48" x="176" y="182.612"/><rect height="80" rx="24" style="fill:#0094f6" transform="translate(624 445.224) rotate(180)" width="48" x="288" y="182.612"/></g></svg>