<svg width="74" height="74" viewBox="0 0 74 74" fill="none" xmlns="http://www.w3.org/2000/svg">
    <path d="M37 1C17.113 1 1 17.113 1 37C1 56.887 17.113 73 37 73C56.887 73 73 56.887 73 37C73 17.113 56.887 1 37 1ZM37 16.5484C43.3066 16.5484 48.4194 21.6612 48.4194 27.9677C48.4194 34.2743 43.3066 39.3871 37 39.3871C30.6934 39.3871 25.5806 34.2743 25.5806 27.9677C25.5806 21.6612 30.6934 16.5484 37 16.5484ZM37 63.0968C29.2721 63.0968 22.32 59.7045 17.5406 54.3467C20.1169 49.9806 24.8072 47.0323 30.2258 47.0323C30.4519 47.0323 30.6898 47.0698 30.9294 47.142C32.8361 47.7572 34.8578 48.1613 37 48.1613C39.1408 48.1613 41.1765 47.7578 43.0717 47.1417C43.3109 47.0696 43.5484 47.0323 43.7742 47.0323C49.1928 47.0323 53.8831 49.9806 56.4594 54.3467C51.68 59.7045 44.7279 63.0968 37 63.0968Z" fill="white" fill-opacity="0.92" stroke="white" stroke-width="2"/>
</svg>