<svg width="203" height="60" viewBox="0 0 203 60" fill="none" xmlns="http://www.w3.org/2000/svg">
<rect width="202.5" height="60" rx="7.5" fill="black"/>
<path fill-rule="evenodd" clip-rule="evenodd" d="M7.5 0H195C199.142 0 202.5 3.35786 202.5 7.5V52.5C202.5 56.6421 199.142 60 195 60H7.5C3.35786 60 0 56.6421 0 52.5V7.5C0 3.35786 3.35786 0 7.5 0ZM201.3 7.5C201.3 4.02061 198.479 1.2 195 1.2H7.5C4.02061 1.2 1.2 4.02061 1.2 7.5V52.5C1.2 55.9794 4.02061 58.8 7.5 58.8H195C198.479 58.8 201.3 55.9794 201.3 52.5V7.5Z" fill="#A6A6A6"/>
<path fill-rule="evenodd" clip-rule="evenodd" d="M71.6101 34.59V37.29H78.0901C77.9885 38.5617 77.4599 39.7617 76.5901 40.695C75.2792 42.0303 73.465 42.7494 71.5951 42.675C67.6187 42.675 64.3951 39.4514 64.3951 35.475C64.3951 31.4985 67.6187 28.275 71.5951 28.275C73.4218 28.2452 75.1858 28.941 76.5001 30.21L78.4051 28.305C76.6125 26.4897 74.1612 25.4778 71.6101 25.5C67.9786 25.3586 64.5607 27.2155 62.7029 30.339C60.8451 33.4626 60.8451 37.3523 62.7029 40.4759C64.5607 43.5995 67.9786 45.4563 71.6101 45.315C74.2078 45.4323 76.7293 44.4205 78.5251 42.54C80.0967 40.8133 80.9357 38.5436 80.8651 36.21C80.87 35.6414 80.8198 35.0738 80.7151 34.515L71.6101 34.59ZM88.2451 32.625C84.7263 32.6332 81.8796 35.4911 81.8852 39.0099C81.8907 42.5288 84.7463 45.3777 88.2651 45.3749C91.784 45.3722 94.6351 42.5188 94.6351 39C94.6599 37.2965 93.992 35.656 92.7845 34.4542C91.5771 33.2524 89.9335 32.5923 88.2301 32.625H88.2451ZM95.8652 39.0199C95.8542 35.503 98.6933 32.6415 102.21 32.625C103.913 32.5923 105.557 33.2524 106.765 34.4542C107.972 35.656 108.64 37.2965 108.615 39C108.615 42.5169 105.767 45.3694 102.25 45.3749C98.7332 45.3804 95.8762 42.5368 95.8652 39.0199ZM98.4482 40.6776C99.1332 42.1114 100.625 42.9808 102.21 42.87C103.205 42.8469 104.149 42.4229 104.826 41.6942C105.504 40.9656 105.859 39.994 105.81 39C105.806 37.4109 104.831 35.9858 103.352 35.4061C101.872 34.8264 100.189 35.2101 99.1066 36.3735C98.0243 37.537 97.7632 39.2438 98.4482 40.6776ZM84.4732 40.6891C85.163 42.122 86.6592 42.9871 88.2451 42.87H88.2301C89.2251 42.8469 90.1685 42.4229 90.8464 41.6942C91.5242 40.9656 91.879 39.994 91.8301 39C91.8258 37.4097 90.8491 35.9839 89.3677 35.4055C87.8863 34.8271 86.2019 35.2139 85.1211 36.3805C84.0404 37.5472 83.7834 39.2562 84.4732 40.6891ZM134.115 32.625C136.602 32.7165 138.774 34.3338 139.575 36.69L139.89 37.365L131.355 40.89C131.89 42.1083 133.116 42.8756 134.445 42.825C135.729 42.8282 136.92 42.1559 137.58 41.055L139.755 42.555C138.571 44.3271 136.576 45.3864 134.445 45.375C132.751 45.3998 131.12 44.7346 129.926 43.5323C128.732 42.33 128.078 40.6939 128.115 39C128.011 37.3447 128.598 35.7205 129.734 34.5128C130.871 33.3051 132.457 32.6217 134.115 32.625ZM130.875 38.82C130.814 37.8827 131.132 36.9602 131.759 36.2603C132.385 35.5605 133.267 35.1423 134.205 35.1C135.194 35.0348 136.127 35.566 136.575 36.45L130.875 38.82ZM126.75 45H123.945V26.25H126.75V45ZM119.355 34.05H119.25C118.395 33.094 117.173 32.5483 115.89 32.55C112.485 32.7151 109.81 35.5237 109.81 38.9325C109.81 42.3412 112.485 45.1499 115.89 45.315C117.177 45.3366 118.407 44.7874 119.25 43.815H119.34V44.73C119.34 47.175 118.035 48.48 115.935 48.48C114.505 48.4465 113.236 47.5515 112.725 46.215L110.28 47.235C111.222 49.5252 113.459 51.0147 115.935 51C119.22 51 121.935 49.065 121.935 44.355V33H119.355V34.05ZM116.14 42.8695L116.145 42.87H116.13L116.14 42.8695ZM118.668 41.6666C118.024 42.3951 117.111 42.8294 116.14 42.8695C114.137 42.6906 112.601 41.0118 112.601 39C112.601 36.9865 114.139 35.3067 116.145 35.13C117.114 35.1797 118.022 35.6186 118.663 36.3472C119.304 37.0758 119.624 38.0323 119.55 39C119.633 39.972 119.314 40.9356 118.668 41.6666ZM152.715 26.25H146.01V45H148.815V37.89H152.73C154.909 38.0465 156.993 36.9727 158.13 35.1074C159.268 33.2421 159.268 30.8978 158.13 29.0325C156.993 27.1672 154.909 26.0934 152.73 26.25H152.715ZM148.8 35.25H152.715L152.775 35.295C154.552 35.295 155.993 33.8544 155.993 32.0775C155.993 30.3005 154.552 28.86 152.775 28.86H148.8V35.25ZM170.01 32.55C167.923 32.4252 165.961 33.5506 165.015 35.415L167.505 36.45C168.007 35.5255 169.007 34.9842 170.055 35.07C170.774 34.986 171.497 35.1944 172.061 35.6485C172.626 36.1026 172.984 36.7643 173.055 37.485V37.68C172.154 37.203 171.15 36.9556 170.13 36.96C167.445 36.96 164.73 38.46 164.73 41.175C164.784 42.3445 165.308 43.4427 166.184 44.2197C167.06 44.9966 168.213 45.3863 169.38 45.3C170.819 45.4033 172.2 44.713 172.98 43.5H173.07V45H175.77V37.785C175.77 34.5 173.28 32.595 170.085 32.595L170.01 32.55ZM167.475 41.235C167.475 42.36 168.75 42.825 169.665 42.825L169.74 42.87C171.43 42.8288 172.831 41.5491 173.025 39.87C172.247 39.4355 171.366 39.218 170.475 39.24C169.065 39.24 167.475 39.735 167.475 41.235ZM185.61 33L182.4 41.13H182.31L178.98 33H175.98L180.975 44.37L178.125 50.685H181.05L188.73 33H185.61ZM163.2 45H160.395V26.25H163.2V45Z" fill="white"/>
<path fill-rule="evenodd" clip-rule="evenodd" d="M103.815 11.655C102.045 13.5281 102.045 16.4568 103.815 18.33C105.64 20.1453 108.589 20.1453 110.415 18.33C112.192 16.4598 112.192 13.5251 110.415 11.655C109.542 10.7756 108.354 10.281 107.115 10.281C105.876 10.281 104.688 10.7756 103.815 11.655ZM70.0048 18.36C70.7747 17.5561 71.1813 16.4718 71.1298 15.36C71.1298 15.1336 71.1098 14.9077 71.0698 14.685H66.7048V15.765H69.9598C69.9375 16.4452 69.6713 17.0948 69.2098 17.595C68.1816 18.5888 66.6566 18.8665 65.3442 18.2988C64.0317 17.7312 63.1897 16.4297 63.2098 15C63.1771 14.0538 63.5313 13.1351 64.1908 12.4559C64.8503 11.7766 65.758 11.3953 66.7048 11.4C67.6466 11.3485 68.5578 11.743 69.1648 12.465L69.9598 11.67C69.5757 11.2283 69.0925 10.8839 68.5498 10.665C67.9668 10.4155 67.3389 10.2878 66.7048 10.29C65.4606 10.2622 64.2606 10.7509 63.3898 11.64C62.0496 12.9889 61.6486 15.0099 62.3723 16.7683C63.096 18.5268 64.8033 19.6801 66.7048 19.695C67.9445 19.7391 69.1444 19.2537 70.0048 18.36ZM73.9498 11.61H77.9998V10.5H72.7498V19.5H77.9998V18.39H73.9498V15.54H77.6398V14.46H73.9498V11.61ZM82.9198 19.5H81.7648V11.61H79.2448V10.5H85.4998V11.61H82.9198V19.5ZM89.9098 10.5V19.5H91.0648V10.5H89.9098ZM96.1948 19.5H95.0398V11.61H92.5198V10.5H98.6998V11.61H96.1948V19.5ZM113.37 10.5V19.5H114.54V12.165L119.115 19.5H120.315V10.5H119.16V17.505L114.78 10.5H113.37ZM104.67 17.58C106.022 18.9263 108.208 18.9263 109.56 17.58C110.888 16.1162 110.888 13.8837 109.56 12.42C108.208 11.0736 106.022 11.0736 104.67 12.42C103.342 13.8837 103.342 16.1162 104.67 17.58Z" fill="white"/>
<path d="M103.815 18.33L103.633 18.5017L103.638 18.5072L103.815 18.33ZM103.815 11.655L103.637 11.4788L103.633 11.4833L103.815 11.655ZM110.415 18.33L110.591 18.5073L110.596 18.5022L110.415 18.33ZM110.415 11.655L110.596 11.4827L110.592 11.4788L110.415 11.655ZM71.1298 15.36L70.8795 15.3599L70.88 15.3715L71.1298 15.36ZM70.0048 18.36L70.1849 18.5333L70.1853 18.5329L70.0048 18.36ZM71.0698 14.685L71.3158 14.6408L71.2789 14.435H71.0698V14.685ZM66.7048 14.685V14.435H66.4548V14.685H66.7048ZM66.7048 15.765H66.4548V16.015H66.7048V15.765ZM69.9598 15.765L70.2096 15.7731L70.2181 15.515H69.9598V15.765ZM69.2098 17.595L69.3835 17.7747L69.3886 17.7697L69.3935 17.7645L69.2098 17.595ZM65.3442 18.2988L65.4434 18.0694H65.4434L65.3442 18.2988ZM63.2098 15L63.46 15.0035L63.4596 14.9913L63.2098 15ZM64.1908 12.4559L64.0114 12.2817L64.1908 12.4559ZM66.7048 11.4L66.7035 11.65L66.711 11.65L66.7184 11.6496L66.7048 11.4ZM69.1648 12.465L68.9734 12.6258L69.1488 12.8345L69.3415 12.6417L69.1648 12.465ZM69.9598 11.67L70.1365 11.8467L70.3014 11.6819L70.1484 11.5059L69.9598 11.67ZM68.5498 10.665L68.4514 10.8948L68.4562 10.8968L68.5498 10.665ZM66.7048 10.29L66.6992 10.54L66.7056 10.54L66.7048 10.29ZM63.3898 11.64L63.5671 11.8162L63.5684 11.8149L63.3898 11.64ZM66.7048 19.695L66.7137 19.445L66.7067 19.445L66.7048 19.695ZM77.9998 11.61V11.86H78.2498V11.61H77.9998ZM73.9498 11.61V11.36H73.6998V11.61H73.9498ZM77.9998 10.5H78.2498V10.25H77.9998V10.5ZM72.7498 10.5V10.25H72.4998V10.5H72.7498ZM72.7498 19.5H72.4998V19.75H72.7498V19.5ZM77.9998 19.5V19.75H78.2498V19.5H77.9998ZM77.9998 18.39H78.2498V18.14H77.9998V18.39ZM73.9498 18.39H73.6998V18.64H73.9498V18.39ZM73.9498 15.54V15.29H73.6998V15.54H73.9498ZM77.6398 15.54V15.79H77.8898V15.54H77.6398ZM77.6398 14.46H77.8898V14.21H77.6398V14.46ZM73.9498 14.46H73.6998V14.71H73.9498V14.46ZM81.7648 19.5H81.5148V19.75H81.7648V19.5ZM82.9198 19.5V19.75H83.1698V19.5H82.9198ZM81.7648 11.61H82.0148V11.36H81.7648V11.61ZM79.2448 11.61H78.9948V11.86H79.2448V11.61ZM79.2448 10.5V10.25H78.9948V10.5H79.2448ZM85.4998 10.5H85.7498V10.25H85.4998V10.5ZM85.4998 11.61V11.86H85.7498V11.61H85.4998ZM82.9198 11.61V11.36H82.6698V11.61H82.9198ZM89.9098 19.5H89.6598V19.75H89.9098V19.5ZM89.9098 10.5V10.25H89.6598V10.5H89.9098ZM91.0648 19.5V19.75H91.3148V19.5H91.0648ZM91.0648 10.5H91.3148V10.25H91.0648V10.5ZM95.0398 19.5H94.7898V19.75H95.0398V19.5ZM96.1948 19.5V19.75H96.4448V19.5H96.1948ZM95.0398 11.61H95.2898V11.36H95.0398V11.61ZM92.5198 11.61H92.2698V11.86H92.5198V11.61ZM92.5198 10.5V10.25H92.2698V10.5H92.5198ZM98.6998 10.5H98.9498V10.25H98.6998V10.5ZM98.6998 11.61V11.86H98.9498V11.61H98.6998ZM96.1948 11.61V11.36H95.9448V11.61H96.1948ZM113.37 19.5H113.12V19.75H113.37V19.5ZM113.37 10.5V10.25H113.12V10.5H113.37ZM114.54 19.5V19.75H114.79V19.5H114.54ZM114.54 12.165L114.752 12.0327L114.29 11.2917V12.165H114.54ZM119.115 19.5L118.903 19.6323L118.976 19.75H119.115V19.5ZM120.315 19.5V19.75H120.565V19.5H120.315ZM120.315 10.5H120.565V10.25H120.315V10.5ZM119.16 10.5V10.25H118.91V10.5H119.16ZM119.16 17.505L118.948 17.6375L119.41 18.3763V17.505H119.16ZM114.78 10.5L114.992 10.3674L114.918 10.25H114.78V10.5ZM109.56 17.58L109.736 17.7573L109.745 17.7479L109.56 17.58ZM104.67 17.58L104.484 17.7481L104.493 17.7571L104.67 17.58ZM109.56 12.42L109.745 12.2518L109.736 12.2428L109.56 12.42ZM104.67 12.42L104.493 12.2426L104.485 12.252L104.67 12.42ZM103.996 18.1583C102.318 16.3815 102.318 13.6034 103.996 11.8266L103.633 11.4833C101.772 13.4528 101.772 16.5321 103.633 18.5016L103.996 18.1583ZM110.238 18.1527C108.51 19.8711 105.719 19.8711 103.991 18.1527L103.638 18.5072C105.562 20.4195 108.668 20.4195 110.591 18.5072L110.238 18.1527ZM110.234 11.8272C111.919 13.6008 111.919 16.3841 110.234 18.1577L110.596 18.5022C112.465 16.5355 112.465 13.4494 110.596 11.4827L110.234 11.8272ZM107.115 10.531C108.287 10.531 109.411 10.999 110.237 11.8311L110.592 11.4788C109.672 10.5522 108.421 10.031 107.115 10.031V10.531ZM103.992 11.8311C104.818 10.999 105.942 10.531 107.115 10.531V10.031C105.809 10.031 104.557 10.5522 103.637 11.4788L103.992 11.8311ZM70.88 15.3715C70.9284 16.415 70.5468 17.4327 69.8242 18.187L70.1853 18.5329C71.0026 17.6796 71.4342 16.5286 71.3795 15.3484L70.88 15.3715ZM70.8237 14.7291C70.8611 14.9373 70.8798 15.1484 70.8798 15.3599L71.3798 15.3601C71.3799 15.1189 71.3585 14.8782 71.3158 14.6408L70.8237 14.7291ZM66.7048 14.935H71.0698V14.435H66.7048V14.935ZM66.9548 15.765V14.685H66.4548V15.765H66.9548ZM69.9598 15.515H66.7048V16.015H69.9598V15.515ZM69.3935 17.7645C69.8958 17.2202 70.1854 16.5134 70.2096 15.7731L69.7099 15.7568C69.6896 16.3771 69.4469 16.9693 69.026 17.4254L69.3935 17.7645ZM65.2449 18.5283C66.65 19.136 68.2828 18.8387 69.3835 17.7747L69.036 17.4152C68.0805 18.3388 66.6631 18.5969 65.4434 18.0694L65.2449 18.5283ZM62.9598 14.9964C62.9383 16.5272 63.8398 17.9206 65.2449 18.5283L65.4434 18.0694C64.2236 17.5418 63.4411 16.3323 63.4597 15.0035L62.9598 14.9964ZM64.0114 12.2817C63.3046 13.0098 62.9249 13.9944 62.9599 15.0086L63.4596 14.9913C63.4293 14.1131 63.7581 13.2605 64.3702 12.63L64.0114 12.2817ZM66.706 11.15C65.6912 11.145 64.7183 11.5536 64.0114 12.2817L64.3702 12.63C64.9823 11.9995 65.8248 11.6456 66.7035 11.65L66.706 11.15ZM69.3561 12.3041C68.6986 11.5219 67.7114 11.0946 66.6911 11.1503L66.7184 11.6496C67.5817 11.6024 68.417 11.964 68.9734 12.6258L69.3561 12.3041ZM69.783 11.4932L68.988 12.2882L69.3415 12.6417L70.1365 11.8467L69.783 11.4932ZM68.4562 10.8968C68.9624 11.101 69.413 11.4221 69.7711 11.834L70.1484 11.5059C69.7385 11.0345 69.2227 10.6668 68.6433 10.4331L68.4562 10.8968ZM66.7056 10.54C67.3056 10.538 67.8997 10.6587 68.4514 10.8948L68.6481 10.4351C68.0338 10.1722 67.3722 10.0377 66.7039 10.04L66.7056 10.54ZM63.5684 11.8149C64.3908 10.9753 65.5242 10.5137 66.6992 10.5399L66.7103 10.04C65.3971 10.0108 64.1303 10.5266 63.2112 11.465L63.5684 11.8149ZM62.6035 16.6732C61.9181 15.0078 62.2978 13.0938 63.5671 11.8162L63.2124 11.4638C61.8013 12.8841 61.3791 15.012 62.1411 16.8635L62.6035 16.6732ZM66.7067 19.445C64.9058 19.4309 63.2889 18.3386 62.6035 16.6732L62.1411 16.8635C62.9031 18.715 64.7007 19.9293 66.7028 19.9449L66.7067 19.445ZM69.8246 18.1866C69.0136 19.0291 67.8824 19.4867 66.7137 19.4451L66.6959 19.9448C68.0066 19.9915 69.2753 19.4782 70.1849 18.5333L69.8246 18.1866ZM77.9998 11.36H73.9498V11.86H77.9998V11.36ZM77.7498 10.5V11.61H78.2498V10.5H77.7498ZM72.7498 10.75H77.9998V10.25H72.7498V10.75ZM72.9998 19.5V10.5H72.4998V19.5H72.9998ZM77.9998 19.25H72.7498V19.75H77.9998V19.25ZM77.7498 18.39V19.5H78.2498V18.39H77.7498ZM73.9498 18.64H77.9998V18.14H73.9498V18.64ZM73.6998 15.54V18.39H74.1998V15.54H73.6998ZM77.6398 15.29H73.9498V15.79H77.6398V15.29ZM77.3898 14.46V15.54H77.8898V14.46H77.3898ZM73.9498 14.71H77.6398V14.21H73.9498V14.71ZM73.6998 11.61V14.46H74.1998V11.61H73.6998ZM81.7648 19.75H82.9198V19.25H81.7648V19.75ZM81.5148 11.61V19.5H82.0148V11.61H81.5148ZM79.2448 11.86H81.7648V11.36H79.2448V11.86ZM78.9948 10.5V11.61H79.4948V10.5H78.9948ZM85.4998 10.25H79.2448V10.75H85.4998V10.25ZM85.7498 11.61V10.5H85.2498V11.61H85.7498ZM82.9198 11.86H85.4998V11.36H82.9198V11.86ZM83.1698 19.5V11.61H82.6698V19.5H83.1698ZM90.1598 19.5V10.5H89.6598V19.5H90.1598ZM91.0648 19.25H89.9098V19.75H91.0648V19.25ZM90.8148 10.5V19.5H91.3148V10.5H90.8148ZM89.9098 10.75H91.0648V10.25H89.9098V10.75ZM95.0398 19.75H96.1948V19.25H95.0398V19.75ZM94.7898 11.61V19.5H95.2898V11.61H94.7898ZM92.5198 11.86H95.0398V11.36H92.5198V11.86ZM92.2698 10.5V11.61H92.7698V10.5H92.2698ZM98.6998 10.25H92.5198V10.75H98.6998V10.25ZM98.9498 11.61V10.5H98.4498V11.61H98.9498ZM96.1948 11.86H98.6998V11.36H96.1948V11.86ZM96.4448 19.5V11.61H95.9448V19.5H96.4448ZM113.62 19.5V10.5H113.12V19.5H113.62ZM114.54 19.25H113.37V19.75H114.54V19.25ZM114.29 12.165V19.5H114.79V12.165H114.29ZM119.327 19.3677L114.752 12.0327L114.328 12.2973L118.903 19.6323L119.327 19.3677ZM120.315 19.25H119.115V19.75H120.315V19.25ZM120.065 10.5V19.5H120.565V10.5H120.065ZM119.16 10.75H120.315V10.25H119.16V10.75ZM119.41 17.505V10.5H118.91V17.505H119.41ZM114.568 10.6325L118.948 17.6375L119.372 17.3724L114.992 10.3674L114.568 10.6325ZM113.37 10.75H114.78V10.25H113.37V10.75ZM109.383 17.4028C108.129 18.652 106.101 18.652 104.846 17.4028L104.493 17.7571C105.943 19.2006 108.287 19.2006 109.736 17.7571L109.383 17.4028ZM109.375 12.5879C110.616 13.9564 110.616 16.0435 109.375 17.412L109.745 17.7479C111.159 16.1889 111.159 13.811 109.745 12.252L109.375 12.5879ZM104.846 12.5971C106.101 11.3479 108.129 11.3479 109.383 12.5971L109.736 12.2428C108.287 10.7993 105.943 10.7993 104.493 12.2428L104.846 12.5971ZM104.855 17.412C103.614 16.0435 103.614 13.9564 104.855 12.5879L104.485 12.252C103.07 13.811 103.07 16.1889 104.485 17.7479L104.855 17.412Z" fill="white"/>
<path d="M15.6602 11.3101C15.1713 11.8967 14.9245 12.6478 14.9702 13.4101V46.5901C14.9245 47.3524 15.1713 48.1034 15.6602 48.6901L15.7652 48.7951L34.3502 30.2251V29.7901L15.7652 11.2051L15.6602 11.3101Z" fill="url(#paint0_linear)"/>
<path d="M40.5001 36.4201L34.3501 30.2251V29.7901L40.5001 23.5801L40.6351 23.6551L48.0001 27.8401C50.1001 29.0251 50.1001 30.9751 48.0001 32.1751L40.6651 36.3451L40.5001 36.4201Z" fill="url(#paint1_linear)"/>
<path d="M40.6802 36.33L34.3502 30L15.6602 48.69C16.5432 49.4663 17.8538 49.5041 18.7802 48.78L40.6952 36.33" fill="url(#paint2_linear)"/>
<path d="M40.68 23.6701L18.765 11.2201C17.8387 10.496 16.5281 10.5338 15.645 11.3101L34.35 30.0001L40.68 23.6701Z" fill="url(#paint3_linear)"/>
<path opacity="0.2" d="M40.5002 36.1951L18.7652 48.5701C17.8757 49.2351 16.6546 49.2351 15.7652 48.5701L15.6602 48.6751L15.7652 48.7801C16.6529 49.4501 17.8774 49.4501 18.7652 48.7801L40.6802 36.3301L40.5002 36.1951Z" fill="black"/>
<path opacity="0.12" fill-rule="evenodd" clip-rule="evenodd" d="M40.5002 36.195L48.0002 31.95C48.7753 31.5674 49.3293 30.8473 49.5002 30C49.4229 30.9366 48.8508 31.7604 48.0002 32.16L40.6352 36.33L40.5002 36.195ZM14.967 46.672C14.9917 47.332 15.2339 47.9685 15.6602 48.48L15.7652 48.6L15.6602 48.705C15.1856 48.1355 14.9392 47.4112 14.967 46.672ZM14.967 46.672C14.9678 46.6497 14.9689 46.6273 14.9702 46.605V46.38C14.9644 46.4776 14.9633 46.5751 14.967 46.672Z" fill="black"/>
<path opacity="0.25" d="M18.7651 11.4299L48.0001 28.0499C48.7751 28.4325 49.3291 29.1526 49.5001 29.9999C49.4228 29.0633 48.8507 28.2395 48.0001 27.8399L18.7651 11.2199C16.6651 10.0349 14.9551 11.0249 14.9551 13.4249V13.6499C15.0001 11.2349 16.6801 10.2449 18.7651 11.4299Z" fill="white"/>
<defs>
<linearGradient id="paint0_linear" x1="26.2101" y1="-11.3384" x2="-3.54908" y2="-3.42387" gradientUnits="userSpaceOnUse">
<stop stop-color="#00A0FF"/>
<stop offset="0.01" stop-color="#00A1FF"/>
<stop offset="0.26" stop-color="#00BEFF"/>
<stop offset="0.51" stop-color="#00D2FF"/>
<stop offset="0.76" stop-color="#00DFFF"/>
<stop offset="1" stop-color="#00E3FF"/>
</linearGradient>
<linearGradient id="paint1_linear" x1="50.7451" y1="14.6996" x2="14.4601" y2="14.6996" gradientUnits="userSpaceOnUse">
<stop stop-color="#FFE000"/>
<stop offset="0.41" stop-color="#FFBD00"/>
<stop offset="0.78" stop-color="#FFA500"/>
<stop offset="1" stop-color="#FF9C00"/>
</linearGradient>
<linearGradient id="paint2_linear" x1="15.111" y1="20.2913" x2="-8.79368" y2="60.5012" gradientUnits="userSpaceOnUse">
<stop stop-color="#FF3A44"/>
<stop offset="1" stop-color="#C31162"/>
</linearGradient>
<linearGradient id="paint3_linear" x1="1.06505" y1="6.14408" x2="11.735" y2="24.0998" gradientUnits="userSpaceOnUse">
<stop stop-color="#32A071"/>
<stop offset="0.07" stop-color="#2DA771"/>
<stop offset="0.48" stop-color="#15CF74"/>
<stop offset="0.8" stop-color="#06E775"/>
<stop offset="1" stop-color="#00F076"/>
</linearGradient>
</defs>
</svg>
