<svg width="104" height="104" viewBox="0 0 104 104" fill="none" xmlns="http://www.w3.org/2000/svg">
<circle cx="52" cy="52" r="52" fill="#FECB02" fill-opacity="0.85"/>
<path d="M54 23C37.4297 23 24 35.4687 24 50.8571C24 57.5 26.5078 63.5804 30.6797 68.3616C29.2148 75.1116 24.3164 81.125 24.2578 81.192C24 81.5 23.9297 81.9554 24.082 82.3571C24.2344 82.7589 24.5625 83 24.9375 83C32.707 83 38.5313 78.7411 41.4141 76.1161C45.2461 77.7634 49.5 78.7143 54 78.7143C70.5703 78.7143 84 66.2455 84 50.8571C84 35.4687 70.5703 23 54 23Z" fill="white"/>
</svg>
