<svg id="bcf5d3dd-b861-4433-a8fc-fd00e2687f6c" data-name="Layer 1" xmlns="http://www.w3.org/2000/svg" viewBox="0 0 104 104"><title>support-alt</title><circle cx="52" cy="52" r="52" style="fill:#ff9a16;fill-opacity:0.8500000238418579"/><path d="M54,23C37.43,23,24,35.47,24,50.86a26.51,26.51,0,0,0,6.68,17.5c-1.47,6.75-6.36,12.77-6.42,12.83a1.19,1.19,0,0,0-.18,1.17.92.92,0,0,0,.86.64c7.77,0,13.59-4.26,16.47-6.88A32,32,0,0,0,54,78.71c16.57,0,30-12.46,30-27.85S70.57,23,54,23Z" style="fill:#fff"/></svg>