<svg width="1057" height="661" viewBox="0 0 1057 661" fill="none" xmlns="http://www.w3.org/2000/svg">
<path d="M1049.32 312.425C1046.01 325.052 1041.17 337.235 1034.92 348.71C1019.13 377.56 993.96 401.114 981.984 431.735C980.212 436.278 978.76 440.94 977.641 445.685C977.169 447.636 976.76 449.6 976.415 451.576C972.403 473.811 975.382 496.735 984.946 517.226C985.701 518.825 986.509 520.442 987.336 522.059C997.176 541.232 1010.9 561.164 1003.47 580.869C1002.73 582.859 1001.78 584.768 1000.66 586.571C993.387 598.316 979.095 605.102 965.784 610.333C906.386 633.707 844 648.729 780.429 654.967C768.171 656.169 755.896 657.045 743.612 657.678C708.885 659.485 674.031 659.286 639.231 659.114C537.331 658.617 435.322 658.12 333.74 650.079C287.301 646.465 240.699 641.161 196.023 628.051C134.678 610.006 78.5377 577.693 32.2465 533.787C30.5928 532.224 28.9664 530.634 27.3491 529.016C17.6088 519.24 8.72268 508.425 4.23417 495.496C-1.908 477.606 1.27212 458.506 8.35924 440.589C11.5715 432.599 15.3738 424.855 19.735 417.423C20.9162 415.39 22.1246 413.348 23.3694 411.333C36.3625 389.775 51.1909 368.768 56.3154 344.265C62.6757 314.042 53.3443 283.828 42.2957 254.365C41.3234 251.772 40.3331 249.178 39.3427 246.603C36.8895 240.197 34.3999 233.819 32.0284 227.494C17.8633 189.7 8.56822 144.316 31.983 111.374C32.6281 110.47 33.3095 109.567 34.0092 108.663C44.9124 94.7308 60.6495 85.1716 76.65 77.1935L78.8216 76.1093C131.245 50.5127 188.653 36.5972 247.041 35.3335C281.068 34.6287 316.304 38.044 348.114 26.0092C366.023 19.2147 382.123 7.72192 400.75 3.18625C432.233 -4.45752 464.824 9.05009 493.064 24.8707C509.31 33.9692 525.138 43.935 542.129 51.7233C554.477 57.3884 568.678 63.7311 581.816 67.2458C594.691 70.6882 607.957 63.7853 619.26 58.1202C643.792 45.8143 666.853 27.4729 695.074 24.5816C730.81 20.9675 766.209 43.8898 801.381 36.5442C816.373 33.409 829.684 24.9882 844.276 20.3531C882.438 8.20078 923.716 23.0637 959.796 40.4564C979.468 49.9253 999.421 60.8037 1013.4 77.2116C1015.33 79.4596 1017.12 81.8092 1018.79 84.25C1018.98 84.5211 1019.16 84.8012 1019.35 85.0813C1029.65 100.604 1034.12 119.198 1038.34 137.35C1046.59 172.804 1054.48 210.155 1055.82 246.612C1056.63 269.119 1054.95 291.291 1049.32 312.425Z" fill="url(#paint0_linear)"/>
<g opacity="0.1">
<path opacity="0.1" d="M1003.47 580.897C1002.73 582.886 1001.78 584.796 1000.66 586.598C950.19 612.251 896.257 630.51 840.533 640.809C809.35 646.592 776.867 652.284 743.594 657.678C708.867 659.485 674.013 659.286 639.214 659.115C537.313 658.618 435.304 658.121 333.722 650.079C287.283 646.465 240.681 641.162 196.005 628.052C134.667 610.004 78.533 577.691 32.247 533.787C30.5933 532.224 28.9669 530.634 27.3496 529.017C17.6093 519.241 8.72317 508.426 4.23466 495.496C-1.90751 477.606 1.27261 458.506 8.35973 440.589L976.442 451.567C972.43 473.802 975.41 496.726 984.974 517.217C985.728 518.816 986.537 520.433 987.364 522.051C997.177 541.259 1010.9 561.191 1003.47 580.897Z" fill="black"/>
<path opacity="0.1" d="M1013.39 77.2028H76.6504L78.822 76.1186C131.245 50.522 188.653 36.6064 247.041 35.3428C281.068 34.638 316.304 38.0533 348.114 26.0184C366.023 19.224 382.124 7.7312 400.75 3.19553C432.233 -4.44825 464.825 9.05937 493.064 24.88C509.31 33.9784 525.138 43.9443 542.129 51.7326C554.477 57.3977 568.678 63.7404 581.817 67.2551C594.692 70.6975 607.958 63.7946 619.261 58.1295C643.793 45.8236 666.853 27.4821 695.075 24.5909C730.81 20.9768 766.209 43.8991 801.381 36.5535C816.373 33.4183 829.684 24.9975 844.277 20.3624C882.438 8.21006 923.716 23.073 959.797 40.4657C979.423 49.9165 999.376 60.7949 1013.39 77.2028Z" fill="black"/>
<path opacity="0.1" d="M42.3053 254.365C53.3539 283.829 62.658 314.042 56.3251 344.265C51.2005 368.769 36.3357 389.775 23.379 411.333L977.642 445.667C978.761 440.922 980.212 436.261 981.985 431.717C993.961 401.115 1019.13 377.506 1034.92 348.692C1041.17 337.223 1046 325.046 1049.32 312.425L42.3053 254.365ZM425.464 362.634H401.295C402.896 362.59 404.49 362.866 405.982 363.445C407.474 364.024 408.834 364.894 409.982 366.005C411.13 367.115 412.043 368.443 412.666 369.91C413.289 371.378 413.61 372.954 413.61 374.547C413.61 376.139 413.289 377.716 412.666 379.183C412.043 380.65 411.13 381.978 409.982 383.089C408.834 384.199 407.474 385.07 405.982 385.649C404.49 386.228 402.896 386.503 401.295 386.46H261.37C259.769 386.503 258.175 386.228 256.683 385.649C255.191 385.07 253.831 384.199 252.683 383.089C251.535 381.978 250.623 380.65 250 379.183C249.377 377.716 249.056 376.139 249.056 374.547C249.056 372.954 249.377 371.378 250 369.91C250.623 368.443 251.535 367.115 252.683 366.005C253.831 364.894 255.191 364.024 256.683 363.445C258.175 362.866 259.769 362.59 261.37 362.634H285.557C283.956 362.678 282.363 362.402 280.871 361.823C279.379 361.244 278.018 360.373 276.87 359.263C275.722 358.152 274.81 356.824 274.187 355.357C273.564 353.89 273.243 352.313 273.243 350.721C273.243 349.128 273.564 347.552 274.187 346.085C274.81 344.617 275.722 343.289 276.87 342.179C278.018 341.068 279.379 340.198 280.871 339.619C282.363 339.04 283.956 338.764 285.557 338.808H268.294C265.118 338.808 262.072 337.553 259.826 335.32C257.58 333.087 256.318 330.058 256.318 326.899C256.318 323.741 257.58 320.712 259.826 318.479C262.072 316.246 265.118 314.991 268.294 314.991H408.219C411.395 314.991 414.441 316.246 416.687 318.479C418.933 320.712 420.194 323.741 420.194 326.899C420.194 330.058 418.933 333.087 416.687 335.32C414.441 337.553 411.395 338.808 408.219 338.808H425.482C427.083 338.764 428.677 339.04 430.169 339.619C431.661 340.198 433.021 341.068 434.169 342.179C435.317 343.289 436.23 344.617 436.853 346.085C437.476 347.552 437.797 349.128 437.797 350.721C437.797 352.313 437.476 353.89 436.853 355.357C436.23 356.824 435.317 358.152 434.169 359.263C433.021 360.373 431.661 361.244 430.169 361.823C428.677 362.402 427.083 362.678 425.482 362.634H425.464Z" fill="black"/>
<path opacity="0.1" d="M1038.32 137.341C1034.1 119.189 1029.63 100.595 1019.33 85.0725L34.0099 108.672C33.3102 109.576 32.6288 110.479 31.9837 111.383C8.5689 144.316 17.8639 189.7 32.0291 227.494C34.4006 233.819 36.8901 240.189 39.3525 246.595H1055.8C1054.46 210.147 1046.57 172.795 1038.32 137.341ZM212.042 183.33H187.864C189.465 183.286 191.059 183.562 192.551 184.141C194.043 184.72 195.403 185.59 196.551 186.701C197.699 187.812 198.611 189.14 199.234 190.607C199.857 192.074 200.178 193.651 200.178 195.243C200.178 196.836 199.857 198.412 199.234 199.879C198.611 201.347 197.699 202.675 196.551 203.785C195.403 204.896 194.043 205.766 192.551 206.345C191.059 206.924 189.465 207.2 187.864 207.156H47.9388C46.3378 207.2 44.7442 206.924 43.2522 206.345C41.7601 205.766 40.3999 204.896 39.252 203.785C38.104 202.675 37.1915 201.347 36.5684 199.879C35.9453 198.412 35.6243 196.836 35.6243 195.243C35.6243 193.651 35.9453 192.074 36.5684 190.607C37.1915 189.14 38.104 187.812 39.252 186.701C40.3999 185.59 41.7601 184.72 43.2522 184.141C44.7442 183.562 46.3378 183.286 47.9388 183.33H72.1077C70.5067 183.374 68.9131 183.098 67.4211 182.519C65.929 181.94 64.5689 181.07 63.4209 179.959C62.2729 178.849 61.3604 177.521 60.7373 176.054C60.1142 174.586 59.7932 173.01 59.7932 171.417C59.7932 169.825 60.1142 168.248 60.7373 166.781C61.3604 165.314 62.2729 163.986 63.4209 162.875C64.5689 161.765 65.929 160.894 67.4211 160.315C68.9131 159.736 70.5067 159.461 72.1077 159.504H54.8442C51.6681 159.504 48.6221 158.25 46.3763 156.017C44.1304 153.783 42.8688 150.754 42.8688 147.596C42.8688 144.438 44.1304 141.409 46.3763 139.176C48.6221 136.942 51.6681 135.688 54.8442 135.688H194.769C197.946 135.688 200.992 136.942 203.237 139.176C205.483 141.409 206.745 144.438 206.745 147.596C206.745 150.754 205.483 153.783 203.237 156.017C200.992 158.25 197.946 159.504 194.769 159.504H212.033C213.634 159.461 215.228 159.736 216.72 160.315C218.212 160.894 219.572 161.765 220.72 162.875C221.868 163.986 222.78 165.314 223.403 166.781C224.026 168.248 224.347 169.825 224.347 171.417C224.347 173.01 224.026 174.586 223.403 176.054C222.78 177.521 221.868 178.849 220.72 179.959C219.572 181.07 218.212 181.94 216.72 182.519C215.228 183.098 213.634 183.374 212.033 183.33H212.042Z" fill="black"/>
</g>
<path d="M1003.47 581.674C997.704 597.034 981.113 605.111 965.785 611.138C906.386 634.511 844 649.534 780.429 655.772C733.545 660.371 686.325 660.145 639.205 659.91C537.305 659.413 435.295 658.916 333.713 650.875C287.274 647.261 240.672 641.957 195.996 628.847C134.657 610.785 78.5257 578.456 32.247 534.537C30.5933 532.974 28.9669 531.384 27.3496 529.767C41.2668 528.005 55.3267 527.635 69.3181 528.664C108.579 531.33 146.831 542.172 185.91 546.879C337.211 565.058 492.329 490.698 640.086 527.851C685.689 539.326 728.875 561.209 775.714 565.6C844.849 572.088 910.932 539.949 978.66 524.635C981.504 523.984 984.411 523.379 987.337 522.828C997.177 542.018 1010.9 561.95 1003.47 581.674Z" fill="#1C0E02"/>
<path d="M821.398 263.427H816.737V519.196H821.398V263.427Z" fill="url(#paint1_radial)"/>
<path d="M825.832 567.037C823.695 568.685 821.068 569.58 818.363 569.58C815.659 569.58 813.031 568.685 810.895 567.037C808.814 553.349 814.102 526.442 815.347 520.415C815.519 519.629 815.61 519.196 815.61 519.196H821.589C821.979 519.597 822.288 520.069 822.498 520.587C826.65 529.333 825.832 567.037 825.832 567.037Z" fill="url(#paint2_radial)"/>
<path opacity="0.1" d="M820.362 513.666V519.195H817.836V513.657C818.242 513.595 818.652 513.565 819.063 513.567C819.498 513.567 819.932 513.6 820.362 513.666Z" fill="black"/>
<path opacity="0.1" d="M822.516 520.587C821.451 521.14 820.263 521.416 819.063 521.391C817.756 521.42 816.468 521.082 815.346 520.415C815.519 519.629 815.61 519.196 815.61 519.196H821.589C821.986 519.595 822.3 520.068 822.516 520.587V520.587Z" fill="black"/>
<path d="M819.072 520.451C821.852 520.451 824.105 519.121 824.105 517.479C824.105 515.837 821.852 514.506 819.072 514.506C816.292 514.506 814.038 515.837 814.038 517.479C814.038 519.121 816.292 520.451 819.072 520.451Z" fill="#3F3D56"/>
<path d="M796.938 222.227L814.375 214.899L840.806 220.004L820.526 204.753L796.938 222.227Z" fill="#3F3D56"/>
<path d="M802.127 224.928L796.938 222.227L814.665 213.788L840.806 220.004L836.208 222.227L814.665 217.42L802.127 224.928Z" fill="#333333"/>
<path d="M802.127 224.928L796.938 222.227L815.183 212.993L840.806 220.004L836.208 222.227L814.665 217.42L802.127 224.928Z" fill="#3F3D56"/>
<path d="M801.427 222.931L815.692 262.686H822.761L835.972 220.474L814.666 215.541L801.427 222.931Z" fill="#FF9100"/>
<path d="M826.268 251.492L823.442 260.509L822.761 262.686H815.692L815.165 261.214L811.831 251.925L817.182 248.727L826.268 251.492Z" fill="#3F3D56"/>
<path opacity="0.2" d="M814.666 217.42L818.046 262.686H815.692L802.127 224.928L814.666 217.42Z" fill="#333333"/>
<path opacity="0.1" d="M820.526 204.753L814.665 213.788L796.938 222.227L820.526 204.753Z" fill="black"/>
<path opacity="0.1" d="M823.442 260.509L822.761 262.686H815.692L815.165 261.214C815.757 260.626 816.469 260.171 817.252 259.878C818.036 259.585 818.873 259.461 819.708 259.515C821.023 259.481 822.32 259.827 823.442 260.509Z" fill="black"/>
<path opacity="0.1" d="M820.362 263.427V267.294C820.141 267.308 819.92 267.308 819.699 267.294C819.087 267.29 818.477 267.218 817.882 267.077V263.391L820.362 263.427Z" fill="black"/>
<path d="M819.699 266.4C822.479 266.4 824.733 265.069 824.733 263.427C824.733 261.786 822.479 260.455 819.699 260.455C816.919 260.455 814.665 261.786 814.665 263.427C814.665 265.069 816.919 266.4 819.699 266.4Z" fill="#3F3D56"/>
<path d="M593.611 523.189C593.611 523.189 533.043 520.65 526.683 402.777C520.323 284.904 583.407 264.936 583.407 264.936C583.407 264.936 603.396 253.832 612.255 253.371C621.114 252.91 650.744 255.693 650.744 255.693L618.088 249.423C618.088 249.423 664.046 232.03 677.802 230.638L628.129 241.047C628.129 241.047 627.429 213.679 639.323 204.626C639.323 204.626 629.183 203.876 623.776 223.6C622.242 229.289 619.387 234.54 615.442 238.934C611.498 243.327 606.572 246.74 601.061 248.899C582.626 256.045 557.148 267.33 551.351 276.989C551.351 276.989 540.621 288.129 542.265 259.135C543.91 230.142 551.597 205.313 554.395 204.617C554.395 204.617 576.329 181.424 607.094 180.032C607.094 180.032 589.14 172.804 558.811 195.347C558.811 195.347 556.249 183.981 567.679 170.527C579.109 157.074 596.836 128.767 616.199 125.758C616.199 125.758 589.14 124.132 567.679 158.926C567.679 158.926 559.747 164.031 559.047 151.038C558.348 138.046 553.677 121.81 553.677 121.81C553.677 121.81 547.145 151.734 560.946 165.179C560.946 165.179 534.597 199.277 535.76 237.55C535.76 237.55 527.582 254.952 524.557 234.533C524.557 234.533 522.803 206.424 519.296 182.58C517.877 172.97 518.468 163.173 521.03 153.8C523.593 144.427 528.072 135.68 534.188 128.107C540.012 120.879 544.073 113.886 541.82 110.208L511.264 146.349C511.264 146.349 485.605 87.1958 466.942 74.4381C448.279 61.6804 445.944 58.8976 445.944 58.8976L476.037 93.918L438.248 80.6995L476.037 98.1013C476.037 98.1013 493.537 112.25 503.568 150.984C513.599 189.718 514.526 213.941 514.526 213.941C514.526 213.941 460.645 171.476 450.378 172.886L485.25 199.088C494.735 206.218 502.57 215.291 508.224 225.693C513.878 236.095 517.22 247.582 518.024 259.379C518.024 259.379 450.614 242.213 434.287 238.969L403.494 207.653L426.818 237.343L378.771 236.647L351.24 217.167C351.24 217.167 372.938 235.237 370.839 236.421C368.74 237.605 337.011 238.969 337.011 238.969C337.011 238.969 417.723 238.508 426.591 244.309C435.459 250.109 455.275 252.187 455.275 252.187L398.124 260.771L466.27 255.901C466.27 255.901 517.824 265.18 520.622 281.199C520.622 281.199 510.119 308.432 503.123 319.238C497.317 328.21 485.632 357.276 483.297 382.791C480.962 408.307 477.7 447.51 486.568 471.399C495.436 495.288 498.689 508.977 494.264 516.169C489.839 523.361 485.632 532.64 500.097 534.492C514.562 536.344 578.001 533.588 578.001 533.588C578.001 533.588 597.345 537.401 593.611 523.189Z" fill="#1C0E02"/>
<path opacity="0.1" d="M559.701 510.531C553.362 507.316 546.09 506.412 539.149 507.974C527.264 510.531 509.074 509.175 507.411 508.877" fill="black"/>
<path opacity="0.1" d="M521.695 371.624C521.695 371.624 518.805 416.971 523.948 425.907L521.695 371.624Z" fill="black"/>
<path opacity="0.1" d="M511.027 425.907C511.027 425.907 514.734 468.373 517.297 476.676C519.859 484.979 511.027 425.907 511.027 425.907Z" fill="black"/>
<path opacity="0.1" d="M507.411 321.46C504.794 322.418 493.555 345.087 495.799 351.792C498.044 358.496 507.411 321.46 507.411 321.46Z" fill="black"/>
<path opacity="0.1" d="M535.915 297.969C534.688 298.52 529.463 311.576 530.508 315.443C531.553 319.31 535.915 297.969 535.915 297.969Z" fill="black"/>
<path opacity="0.1" d="M487.25 374.108C488.54 387.273 489.248 395.892 488.422 406.427C487.729 414.617 487.848 422.855 488.776 431.021" fill="black"/>
<path opacity="0.1" d="M627.974 220.79C626.501 222.703 625.729 225.058 625.784 227.467C625.703 229.852 626.021 232.247 625.857 234.623C625.694 237.135 624.494 240.044 621.996 240.406" fill="black"/>
<path opacity="0.1" d="M584.897 142.292C581.705 145.444 578.874 148.938 576.456 152.71C575.756 153.906 574.954 155.039 574.058 156.098C572.616 157.471 571.07 158.73 569.433 159.866C565.792 162.813 563.204 166.85 562.055 171.377" fill="black"/>
<path opacity="0.1" d="M462.962 74.5104C463.728 75.9951 464.739 77.3419 465.952 78.4949C467.015 79.4978 468.214 80.3019 469.177 81.4313C469.939 82.3883 470.628 83.4 471.24 84.4581C473.806 88.3043 476.69 91.9309 479.862 95.3004" fill="black"/>
<path opacity="0.1" d="M519.414 141.66C517.406 142.907 516.879 145.581 516.924 147.985C516.97 150.388 517.37 152.791 516.488 154.978C516.088 155.981 515.443 156.857 515.025 157.842C514.419 159.582 514.181 161.427 514.326 163.263C514.362 165.407 514.429 167.543 514.526 169.669C514.635 172.244 514.88 175.027 516.634 176.897" fill="black"/>
<path opacity="0.1" d="M517.769 268.722C516.439 267.644 515.026 266.672 513.544 265.813C512.189 264.989 510.728 264.35 509.201 263.915C506.875 263.301 504.431 263.391 502.041 263.147C499.652 262.903 497.144 262.244 495.508 260.482" fill="black"/>
<path opacity="0.1" d="M422.92 239.421C425.755 239.502 428.708 239.601 431.225 240.893C432.515 241.553 433.632 242.493 434.904 243.197C436.542 244.101 438.383 244.58 440.256 244.589" fill="black"/>
<path opacity="0.1" d="M462.271 251.067C461.933 250.886 461.539 250.834 461.165 250.92C460.79 251.006 460.46 251.226 460.236 251.537C459.727 252.115 459.446 252.865 458.928 253.434C457.892 254.546 456.202 254.672 454.676 254.726" fill="black"/>
<path opacity="0.1" d="M478.526 191.118L481.252 192.537C484.088 193.896 486.781 195.53 489.293 197.416" fill="black"/>
<path opacity="0.1" d="M509.665 217.637C511.482 217.212 513.008 219.119 513.299 220.917C513.59 222.715 513.244 224.621 513.762 226.338C514.333 227.874 515.268 229.25 516.488 230.349" fill="black"/>
<path opacity="0.1" d="M540.012 220.953C541.639 225.796 538.195 231.081 539.195 236.087C539.503 237.614 540.212 239.032 540.576 240.541C541.484 244.526 539.894 248.772 537.277 251.934" fill="black"/>
<path opacity="0.5" d="M267.612 563.974L269.011 566.937V544.928H267.612V563.974Z" fill="#682C00"/>
<path opacity="0.5" d="M177.406 563.974L176.007 566.937V544.928H177.406V563.974Z" fill="#682C00"/>
<path d="M186.919 504.486H183.048V531.547H186.919V504.486Z" fill="#3F3D56"/>
<path d="M264.768 504.486H260.898V531.547H264.768V504.486Z" fill="#3F3D56"/>
<g opacity="0.1">
<path opacity="0.1" d="M186.919 504.486H183.048V531.547H186.919V504.486Z" fill="black"/>
<path opacity="0.1" d="M264.768 504.486H260.898V531.547H264.768V504.486Z" fill="black"/>
</g>
<path opacity="0.1" d="M186.919 504.486H183.048V507.639H186.919V504.486Z" fill="black"/>
<path opacity="0.1" d="M264.768 504.486H260.898V507.639H264.768V504.486Z" fill="black"/>
<path d="M270.283 503.348H177.087V507.387H270.283V503.348Z" fill="#682C00"/>
<path opacity="0.1" d="M186.919 509.094H183.048V513.133H186.919V509.094Z" fill="black"/>
<path opacity="0.1" d="M264.768 509.094H260.898V513.133H264.768V509.094Z" fill="black"/>
<path d="M270.283 508.841H177.087V512.88H270.283V508.841Z" fill="#682C00"/>
<path opacity="0.1" d="M186.919 514.578H183.048V518.617H186.919V514.578Z" fill="black"/>
<path opacity="0.1" d="M264.768 514.578H260.898V518.617H264.768V514.578Z" fill="black"/>
<path d="M270.283 514.326H177.087V518.364H270.283V514.326Z" fill="#682C00"/>
<path opacity="0.1" d="M186.919 520.072H183.048V524.111H186.919V520.072Z" fill="black"/>
<path opacity="0.1" d="M264.768 520.072H260.898V524.111H264.768V520.072Z" fill="black"/>
<path d="M270.283 519.819H177.087V523.858H270.283V519.819Z" fill="#682C00"/>
<path opacity="0.1" d="M186.919 525.556H183.048V529.595H186.919V525.556Z" fill="black"/>
<path opacity="0.1" d="M264.768 525.556H260.898V529.595H264.768V525.556Z" fill="black"/>
<path d="M270.283 525.303H177.087V529.342H270.283V525.303Z" fill="#682C00"/>
<g opacity="0.1">
<path opacity="0.1" d="M184.984 506.185C185.295 506.185 185.547 505.934 185.547 505.625C185.547 505.315 185.295 505.064 184.984 505.064C184.673 505.064 184.42 505.315 184.42 505.625C184.42 505.934 184.673 506.185 184.984 506.185Z" fill="black"/>
<path opacity="0.1" d="M184.984 511.669C185.295 511.669 185.547 511.418 185.547 511.109C185.547 510.8 185.295 510.549 184.984 510.549C184.673 510.549 184.42 510.8 184.42 511.109C184.42 511.418 184.673 511.669 184.984 511.669Z" fill="black"/>
<path opacity="0.1" d="M184.984 517.163C185.295 517.163 185.547 516.912 185.547 516.602C185.547 516.293 185.295 516.042 184.984 516.042C184.673 516.042 184.42 516.293 184.42 516.602C184.42 516.912 184.673 517.163 184.984 517.163Z" fill="black"/>
<path opacity="0.1" d="M184.984 522.647C185.295 522.647 185.547 522.396 185.547 522.087C185.547 521.777 185.295 521.527 184.984 521.527C184.673 521.527 184.42 521.777 184.42 522.087C184.42 522.396 184.673 522.647 184.984 522.647Z" fill="black"/>
<path opacity="0.1" d="M184.984 528.14C185.295 528.14 185.547 527.89 185.547 527.58C185.547 527.271 185.295 527.02 184.984 527.02C184.673 527.02 184.42 527.271 184.42 527.58C184.42 527.89 184.673 528.14 184.984 528.14Z" fill="black"/>
<path opacity="0.1" d="M262.833 506.185C263.144 506.185 263.396 505.934 263.396 505.625C263.396 505.315 263.144 505.064 262.833 505.064C262.522 505.064 262.27 505.315 262.27 505.625C262.27 505.934 262.522 506.185 262.833 506.185Z" fill="black"/>
<path opacity="0.1" d="M262.833 511.669C263.144 511.669 263.396 511.418 263.396 511.109C263.396 510.8 263.144 510.549 262.833 510.549C262.522 510.549 262.27 510.8 262.27 511.109C262.27 511.418 262.522 511.669 262.833 511.669Z" fill="black"/>
<path opacity="0.1" d="M262.833 517.163C263.144 517.163 263.396 516.912 263.396 516.602C263.396 516.293 263.144 516.042 262.833 516.042C262.522 516.042 262.27 516.293 262.27 516.602C262.27 516.912 262.522 517.163 262.833 517.163Z" fill="black"/>
<path opacity="0.1" d="M262.833 522.647C263.144 522.647 263.396 522.396 263.396 522.087C263.396 521.777 263.144 521.527 262.833 521.527C262.522 521.527 262.27 521.777 262.27 522.087C262.27 522.396 262.522 522.647 262.833 522.647Z" fill="black"/>
<path opacity="0.1" d="M262.833 528.14C263.144 528.14 263.396 527.89 263.396 527.58C263.396 527.271 263.144 527.02 262.833 527.02C262.522 527.02 262.27 527.271 262.27 527.58C262.27 527.89 262.522 528.14 262.833 528.14Z" fill="black"/>
</g>
<path d="M184.984 505.932C185.295 505.932 185.547 505.681 185.547 505.372C185.547 505.062 185.295 504.812 184.984 504.812C184.673 504.812 184.42 505.062 184.42 505.372C184.42 505.681 184.673 505.932 184.984 505.932Z" fill="#3F3D56"/>
<path d="M184.984 511.416C185.295 511.416 185.547 511.165 185.547 510.856C185.547 510.547 185.295 510.296 184.984 510.296C184.673 510.296 184.42 510.547 184.42 510.856C184.42 511.165 184.673 511.416 184.984 511.416Z" fill="#3F3D56"/>
<path d="M184.984 516.91C185.295 516.91 185.547 516.659 185.547 516.349C185.547 516.04 185.295 515.789 184.984 515.789C184.673 515.789 184.42 516.04 184.42 516.349C184.42 516.659 184.673 516.91 184.984 516.91Z" fill="#3F3D56"/>
<path d="M184.984 522.394C185.295 522.394 185.547 522.143 185.547 521.834C185.547 521.524 185.295 521.274 184.984 521.274C184.673 521.274 184.42 521.524 184.42 521.834C184.42 522.143 184.673 522.394 184.984 522.394Z" fill="#3F3D56"/>
<path d="M184.984 527.887C185.295 527.887 185.547 527.637 185.547 527.327C185.547 527.018 185.295 526.767 184.984 526.767C184.673 526.767 184.42 527.018 184.42 527.327C184.42 527.637 184.673 527.887 184.984 527.887Z" fill="#3F3D56"/>
<path d="M184.984 505.932C185.295 505.932 185.547 505.681 185.547 505.372C185.547 505.062 185.295 504.812 184.984 504.812C184.673 504.812 184.42 505.062 184.42 505.372C184.42 505.681 184.673 505.932 184.984 505.932Z" fill="#3F3D56"/>
<path d="M184.984 511.416C185.295 511.416 185.547 511.165 185.547 510.856C185.547 510.547 185.295 510.296 184.984 510.296C184.673 510.296 184.42 510.547 184.42 510.856C184.42 511.165 184.673 511.416 184.984 511.416Z" fill="#3F3D56"/>
<path d="M184.984 516.91C185.295 516.91 185.547 516.659 185.547 516.349C185.547 516.04 185.295 515.789 184.984 515.789C184.673 515.789 184.42 516.04 184.42 516.349C184.42 516.659 184.673 516.91 184.984 516.91Z" fill="#3F3D56"/>
<path d="M184.984 522.394C185.295 522.394 185.547 522.143 185.547 521.834C185.547 521.524 185.295 521.274 184.984 521.274C184.673 521.274 184.42 521.524 184.42 521.834C184.42 522.143 184.673 522.394 184.984 522.394Z" fill="#3F3D56"/>
<path d="M184.984 527.887C185.295 527.887 185.547 527.637 185.547 527.327C185.547 527.018 185.295 526.767 184.984 526.767C184.673 526.767 184.42 527.018 184.42 527.327C184.42 527.637 184.673 527.887 184.984 527.887Z" fill="#3F3D56"/>
<path d="M262.832 505.932C263.144 505.932 263.396 505.681 263.396 505.372C263.396 505.062 263.144 504.812 262.832 504.812C262.521 504.812 262.269 505.062 262.269 505.372C262.269 505.681 262.521 505.932 262.832 505.932Z" fill="#3F3D56"/>
<path d="M262.832 511.416C263.144 511.416 263.396 511.165 263.396 510.856C263.396 510.547 263.144 510.296 262.832 510.296C262.521 510.296 262.269 510.547 262.269 510.856C262.269 511.165 262.521 511.416 262.832 511.416Z" fill="#3F3D56"/>
<path d="M262.832 516.91C263.144 516.91 263.396 516.659 263.396 516.349C263.396 516.04 263.144 515.789 262.832 515.789C262.521 515.789 262.269 516.04 262.269 516.349C262.269 516.659 262.521 516.91 262.832 516.91Z" fill="#3F3D56"/>
<path d="M262.832 522.394C263.144 522.394 263.396 522.143 263.396 521.834C263.396 521.524 263.144 521.274 262.832 521.274C262.521 521.274 262.269 521.524 262.269 521.834C262.269 522.143 262.521 522.394 262.832 522.394Z" fill="#3F3D56"/>
<path d="M262.832 527.887C263.144 527.887 263.396 527.637 263.396 527.327C263.396 527.018 263.144 526.767 262.832 526.767C262.521 526.767 262.269 527.018 262.269 527.327C262.269 527.637 262.521 527.887 262.832 527.887Z" fill="#3F3D56"/>
<g opacity="0.1">
<path opacity="0.1" d="M184.984 505.932C185.295 505.932 185.547 505.681 185.547 505.372C185.547 505.062 185.295 504.812 184.984 504.812C184.673 504.812 184.42 505.062 184.42 505.372C184.42 505.681 184.673 505.932 184.984 505.932Z" fill="black"/>
<path opacity="0.1" d="M184.984 511.416C185.295 511.416 185.547 511.165 185.547 510.856C185.547 510.547 185.295 510.296 184.984 510.296C184.673 510.296 184.42 510.547 184.42 510.856C184.42 511.165 184.673 511.416 184.984 511.416Z" fill="black"/>
<path opacity="0.1" d="M184.984 516.91C185.295 516.91 185.547 516.659 185.547 516.349C185.547 516.04 185.295 515.789 184.984 515.789C184.673 515.789 184.42 516.04 184.42 516.349C184.42 516.659 184.673 516.91 184.984 516.91Z" fill="black"/>
<path opacity="0.1" d="M184.984 522.394C185.295 522.394 185.547 522.143 185.547 521.834C185.547 521.524 185.295 521.274 184.984 521.274C184.673 521.274 184.42 521.524 184.42 521.834C184.42 522.143 184.673 522.394 184.984 522.394Z" fill="black"/>
<path opacity="0.1" d="M184.984 527.887C185.295 527.887 185.547 527.637 185.547 527.327C185.547 527.018 185.295 526.767 184.984 526.767C184.673 526.767 184.42 527.018 184.42 527.327C184.42 527.637 184.673 527.887 184.984 527.887Z" fill="black"/>
<path opacity="0.1" d="M184.984 505.932C185.295 505.932 185.547 505.681 185.547 505.372C185.547 505.062 185.295 504.812 184.984 504.812C184.673 504.812 184.42 505.062 184.42 505.372C184.42 505.681 184.673 505.932 184.984 505.932Z" fill="black"/>
<path opacity="0.1" d="M184.984 511.416C185.295 511.416 185.547 511.165 185.547 510.856C185.547 510.547 185.295 510.296 184.984 510.296C184.673 510.296 184.42 510.547 184.42 510.856C184.42 511.165 184.673 511.416 184.984 511.416Z" fill="black"/>
<path opacity="0.1" d="M184.984 516.91C185.295 516.91 185.547 516.659 185.547 516.349C185.547 516.04 185.295 515.789 184.984 515.789C184.673 515.789 184.42 516.04 184.42 516.349C184.42 516.659 184.673 516.91 184.984 516.91Z" fill="black"/>
<path opacity="0.1" d="M184.984 522.394C185.295 522.394 185.547 522.143 185.547 521.834C185.547 521.524 185.295 521.274 184.984 521.274C184.673 521.274 184.42 521.524 184.42 521.834C184.42 522.143 184.673 522.394 184.984 522.394Z" fill="black"/>
<path opacity="0.1" d="M184.984 527.887C185.295 527.887 185.547 527.637 185.547 527.327C185.547 527.018 185.295 526.767 184.984 526.767C184.673 526.767 184.42 527.018 184.42 527.327C184.42 527.637 184.673 527.887 184.984 527.887Z" fill="black"/>
<path opacity="0.1" d="M262.833 505.932C263.144 505.932 263.396 505.681 263.396 505.372C263.396 505.062 263.144 504.812 262.833 504.812C262.522 504.812 262.27 505.062 262.27 505.372C262.27 505.681 262.522 505.932 262.833 505.932Z" fill="black"/>
<path opacity="0.1" d="M262.833 511.416C263.144 511.416 263.396 511.165 263.396 510.856C263.396 510.547 263.144 510.296 262.833 510.296C262.522 510.296 262.27 510.547 262.27 510.856C262.27 511.165 262.522 511.416 262.833 511.416Z" fill="black"/>
<path opacity="0.1" d="M262.833 516.91C263.144 516.91 263.396 516.659 263.396 516.349C263.396 516.04 263.144 515.789 262.833 515.789C262.522 515.789 262.27 516.04 262.27 516.349C262.27 516.659 262.522 516.91 262.833 516.91Z" fill="black"/>
<path opacity="0.1" d="M262.833 522.394C263.144 522.394 263.396 522.143 263.396 521.834C263.396 521.524 263.144 521.274 262.833 521.274C262.522 521.274 262.27 521.524 262.27 521.834C262.27 522.143 262.522 522.394 262.833 522.394Z" fill="black"/>
<path opacity="0.1" d="M262.833 527.887C263.144 527.887 263.396 527.637 263.396 527.327C263.396 527.018 263.144 526.767 262.833 526.767C262.522 526.767 262.27 527.018 262.27 527.327C262.27 527.637 262.522 527.887 262.833 527.887Z" fill="black"/>
</g>
<path d="M272.437 533.128H174.862L177.088 530.417H270.274L272.437 533.128Z" fill="#682C00"/>
<path d="M275.862 537.356L171.182 537.103L174.734 533.381H272.818L275.862 537.356Z" fill="#682C00"/>
<path d="M279.161 541.332H167.438L170.864 537.483L276.117 537.609L279.161 541.332Z" fill="#682C00"/>
<path opacity="0.5" d="M184.42 544.928V552.87L183.048 555.526L182.594 546.057L182.539 544.928H184.42Z" fill="#682C00"/>
<path opacity="0.5" d="M262.787 544.928L262.733 546.057L262.279 555.526L260.906 552.87V544.928H262.787Z" fill="#682C00"/>
<path d="M183.048 544.295H179.495V555.526H183.048V544.295Z" fill="#3F3D56"/>
<path d="M265.84 544.295H262.287V555.526H265.84V544.295Z" fill="#3F3D56"/>
<path opacity="0.1" d="M183.048 544.928H184.42V546.057H179.495V544.295H183.048V544.928Z" fill="black"/>
<path opacity="0.8" d="M183.048 544.295H179.495V555.526H183.048V544.295Z" fill="#682C00"/>
<path opacity="0.8" d="M265.84 544.295H262.287V555.526H265.84V544.295Z" fill="#682C00"/>
<path opacity="0.1" d="M265.84 544.295V546.057H260.906V544.928H262.278V544.295H265.84Z" fill="black"/>
<path d="M270.274 543.03H174.862V545.804H270.274V543.03Z" fill="#3F3D56"/>
<path opacity="0.7" d="M270.274 543.03H174.862V545.804H270.274V543.03Z" fill="#682C00"/>
<path d="M176.006 542.524H171.945V566.937H176.006V542.524Z" fill="#3F3D56"/>
<path d="M269.012 566.937H273.073V542.524H269.012V566.937Z" fill="#3F3D56"/>
<path d="M176.006 542.524H171.945V566.937H176.006V542.524Z" fill="#682C00"/>
<path d="M269.012 566.937H273.073V542.524H269.012V566.937Z" fill="#682C00"/>
<path opacity="0.1" d="M270.274 543.03H174.862V543.283H270.274V543.03Z" fill="black"/>
<path opacity="0.1" d="M173.735 545.109C174.046 545.109 174.298 544.858 174.298 544.548C174.298 544.239 174.046 543.988 173.735 543.988C173.424 543.988 173.172 544.239 173.172 544.548C173.172 544.858 173.424 545.109 173.735 545.109Z" fill="black"/>
<path opacity="0.1" d="M271.374 545.027C271.685 545.027 271.937 544.776 271.937 544.467C271.937 544.158 271.685 543.907 271.374 543.907C271.063 543.907 270.811 544.158 270.811 544.467C270.811 544.776 271.063 545.027 271.374 545.027Z" fill="black"/>
<path d="M168.356 540.302L167.438 541.332V542.181H279.161V541.332L278.325 540.302H168.356Z" fill="#682C00"/>
<path d="M279.152 541.332H167.438V543.039H279.152V541.332Z" fill="#682C00"/>
<path d="M449.706 497.05C449.194 497.755 448.784 498.527 448.489 499.345C448.407 499.544 448.334 499.77 448.261 499.987C448.124 499.925 447.981 499.877 447.834 499.842C447.208 499.688 446.561 499.633 445.917 499.679C445.917 499.436 445.917 499.174 445.917 498.893C445.999 496.074 445.663 492.153 442.964 493.816C440.266 495.478 442.219 498.08 443.873 499.806L444.3 500.222C442.773 501.315 442.483 503.836 442.228 506.447C441.974 509.058 439.739 511.94 438.249 513.576L437.831 514.027C437.229 513.551 436.532 513.206 435.787 513.016C435.041 512.826 434.264 512.795 433.506 512.925C433.442 512.69 433.378 512.455 433.306 512.202C432.097 507.874 429.599 500.384 426.409 498.749C426.546 498.577 426.691 498.406 426.827 498.216C428.19 496.409 429.708 493.843 427.454 493.165C425.201 492.487 425.001 495.442 425.128 497.683C425.128 497.963 425.128 498.225 425.192 498.469C424.741 498.489 424.3 498.601 423.895 498.799C423.49 498.996 423.13 499.274 422.839 499.616L422.484 499.201C420.667 497.059 417.314 493.662 416.297 496.228C415.388 498.622 418.305 501.74 420.376 503.538L420.504 503.646C419.113 509.266 425.192 513.847 428.463 515.853L428.89 516.115C424.347 521.4 421.621 531.321 421.621 531.321L434.269 533.571C434.269 533.571 442.646 526.342 441.538 519.62H441.629C450.006 517.949 451.914 509.067 450.606 503.791L450.751 503.736C452.275 503.112 453.612 502.107 454.631 500.818C457.029 497.529 452.114 493.87 449.706 497.05Z" fill="#3F3D56"/>
<path opacity="0.1" d="M449.706 497.05C449.194 497.755 448.784 498.527 448.489 499.345C448.407 499.544 448.334 499.77 448.261 499.987C448.124 499.925 447.981 499.877 447.834 499.842C447.208 499.688 446.561 499.633 445.917 499.679C445.917 499.436 445.917 499.174 445.917 498.893C445.999 496.074 445.663 492.153 442.964 493.816C440.266 495.478 442.219 498.08 443.873 499.806L444.3 500.222C442.773 501.315 442.483 503.836 442.228 506.447C441.974 509.058 439.739 511.94 438.249 513.576L437.831 514.027C437.229 513.551 436.532 513.206 435.787 513.016C435.041 512.826 434.264 512.795 433.506 512.925C433.442 512.69 433.378 512.455 433.306 512.202C432.097 507.874 429.599 500.384 426.409 498.749C426.546 498.577 426.691 498.406 426.827 498.216C428.19 496.409 429.708 493.843 427.454 493.165C425.201 492.487 425.001 495.442 425.128 497.683C425.128 497.963 425.128 498.225 425.192 498.469C424.741 498.489 424.3 498.601 423.895 498.799C423.49 498.996 423.13 499.274 422.839 499.616L422.484 499.201C420.667 497.059 417.314 493.662 416.297 496.228C415.388 498.622 418.305 501.74 420.376 503.538L420.504 503.646C419.113 509.266 425.192 513.847 428.463 515.853L428.89 516.115C424.347 521.4 421.621 531.321 421.621 531.321L434.269 533.571C434.269 533.571 442.646 526.342 441.538 519.62H441.629C450.006 517.949 451.914 509.067 450.606 503.791L450.751 503.736C452.275 503.112 453.612 502.107 454.631 500.818C457.029 497.529 452.114 493.87 449.706 497.05Z" fill="black"/>
<path d="M424.537 500.673L423.102 504.974C423.102 504.974 422.275 504.396 421.284 503.492C419.213 501.685 416.26 498.577 417.205 496.183C418.223 493.617 421.575 497.014 423.401 499.155C424.056 500.014 424.537 500.673 424.537 500.673Z" fill="#56790B"/>
<path d="M427.645 498.216C427.195 498.805 426.712 499.369 426.2 499.905C426.2 499.905 426.018 498.884 425.936 497.637C425.818 495.442 426.045 492.515 428.271 493.12C430.498 493.725 429.017 496.454 427.645 498.216Z" fill="#56790B"/>
<path d="M446.726 498.894C446.68 500.312 446.544 501.442 446.544 501.442C445.903 500.937 445.296 500.39 444.727 499.806C443.055 498.08 441.201 495.415 443.818 493.816C446.435 492.216 446.807 496.075 446.726 498.894Z" fill="#759F1B"/>
<path d="M455.457 500.755C454.44 502.045 453.103 503.051 451.577 503.673C451.153 503.854 450.72 504.01 450.278 504.143L448.543 501.703C448.726 500.902 448.966 500.114 449.26 499.345C449.556 498.527 449.966 497.755 450.478 497.05C452.886 493.87 457.801 497.529 455.457 500.755Z" fill="#759F1B"/>
<path opacity="0.1" d="M423.32 499.155C424.056 500.059 424.537 500.673 424.537 500.673L423.102 504.974C423.102 504.974 422.275 504.396 421.284 503.492C421.518 502.116 422.089 500.819 422.947 499.716C423.011 499.508 423.174 499.327 423.32 499.155Z" fill="black"/>
<path opacity="0.1" d="M427.645 498.216C427.195 498.805 426.713 499.369 426.2 499.905C426.2 499.905 426.019 498.884 425.937 497.637C426.552 497.652 427.148 497.854 427.645 498.216Z" fill="black"/>
<path d="M434.914 515.301L431.279 516.91C431.279 516.91 430.471 516.521 429.317 515.807C425.455 513.449 417.687 507.495 422.893 500.447C428.099 493.4 432.451 506.013 434.16 512.193C434.65 514.036 434.914 515.301 434.914 515.301Z" fill="#56790B"/>
<path opacity="0.1" d="M444.7 499.806C445.236 499.26 445.96 498.937 446.726 498.902C446.68 500.321 446.544 501.45 446.544 501.45C445.893 500.944 445.277 500.394 444.7 499.806V499.806Z" fill="black"/>
<path opacity="0.1" d="M451.577 503.673C451.153 503.853 450.72 504.01 450.278 504.143L448.543 501.703C448.726 500.902 448.966 500.114 449.26 499.345C450.36 499.996 451.214 501.622 451.577 503.673Z" fill="black"/>
<path d="M442.455 519.557C442.255 519.557 442.046 519.638 441.837 519.666C429.507 521.527 437.767 514.913 437.767 514.913C437.767 514.913 438.33 514.407 439.075 513.576C440.565 511.94 442.8 509.058 443.055 506.447C443.445 502.471 443.89 498.749 448.606 499.842C453.322 500.935 454.121 517.235 442.455 519.557Z" fill="#759F1B"/>
<path opacity="0.1" d="M434.132 512.202C434.65 514.009 434.932 515.301 434.932 515.301L431.298 516.91C431.298 516.91 430.489 516.521 429.335 515.807C430.734 513.991 432.361 512.618 434.132 512.202Z" fill="black"/>
<path opacity="0.1" d="M442.455 519.557C442.255 519.557 442.046 519.638 441.837 519.665C429.507 521.527 437.767 514.913 437.767 514.913C437.767 514.913 438.33 514.407 439.075 513.576C440.043 514.267 440.846 515.161 441.43 516.194C442.014 517.228 442.364 518.375 442.455 519.557V519.557Z" fill="black"/>
<path d="M422.411 531.275C422.411 531.275 429.317 506.709 438.993 514.28C448.67 521.852 435.059 533.525 435.059 533.525L422.411 531.275Z" fill="#759F1B"/>
<path opacity="0.1" d="M425.9 505.101C426.327 505.101 426.672 504.757 426.672 504.333C426.672 503.909 426.327 503.565 425.9 503.565C425.474 503.565 425.128 503.909 425.128 504.333C425.128 504.757 425.474 505.101 425.9 505.101Z" fill="black"/>
<path opacity="0.1" d="M425.837 508.697C426.263 508.697 426.609 508.353 426.609 507.929C426.609 507.504 426.263 507.161 425.837 507.161C425.41 507.161 425.064 507.504 425.064 507.929C425.064 508.353 425.41 508.697 425.837 508.697Z" fill="black"/>
<path opacity="0.1" d="M448.289 505.814C448.715 505.814 449.061 505.471 449.061 505.046C449.061 504.622 448.715 504.278 448.289 504.278C447.862 504.278 447.516 504.622 447.516 505.046C447.516 505.471 447.862 505.814 448.289 505.814Z" fill="black"/>
<path opacity="0.1" d="M430.225 524.219C430.652 524.219 430.997 523.875 430.997 523.451C430.997 523.027 430.652 522.683 430.225 522.683C429.798 522.683 429.453 523.027 429.453 523.451C429.453 523.875 429.798 524.219 430.225 524.219Z" fill="black"/>
<path opacity="0.1" d="M446.671 511.778C447.098 511.778 447.443 511.434 447.443 511.01C447.443 510.585 447.098 510.242 446.671 510.242C446.244 510.242 445.899 510.585 445.899 511.01C445.899 511.434 446.244 511.778 446.671 511.778Z" fill="black"/>
<path opacity="0.1" d="M438.675 519.729C439.102 519.729 439.448 519.385 439.448 518.961C439.448 518.536 439.102 518.193 438.675 518.193C438.249 518.193 437.903 518.536 437.903 518.961C437.903 519.385 438.249 519.729 438.675 519.729Z" fill="black"/>
<path opacity="0.1" d="M428.545 506.646C428.971 506.646 429.317 506.302 429.317 505.878C429.317 505.453 428.971 505.11 428.545 505.11C428.118 505.11 427.772 505.453 427.772 505.878C427.772 506.302 428.118 506.646 428.545 506.646Z" fill="black"/>
<path opacity="0.1" d="M446.153 508.118C446.58 508.118 446.925 507.775 446.925 507.35C446.925 506.926 446.58 506.582 446.153 506.582C445.727 506.582 445.381 506.926 445.381 507.35C445.381 507.775 445.727 508.118 446.153 508.118Z" fill="black"/>
<path opacity="0.1" d="M443.509 514.091C443.936 514.091 444.281 513.747 444.281 513.323C444.281 512.899 443.936 512.555 443.509 512.555C443.083 512.555 442.737 512.899 442.737 513.323C442.737 513.747 443.083 514.091 443.509 514.091Z" fill="black"/>
<path opacity="0.1" d="M435.386 523.641C435.813 523.641 436.159 523.297 436.159 522.873C436.159 522.449 435.813 522.105 435.386 522.105C434.96 522.105 434.614 522.449 434.614 522.873C434.614 523.297 434.96 523.641 435.386 523.641Z" fill="black"/>
<path opacity="0.1" d="M433.705 519.864C434.132 519.864 434.477 519.52 434.477 519.096C434.477 518.672 434.132 518.328 433.705 518.328C433.279 518.328 432.933 518.672 432.933 519.096C432.933 519.52 433.279 519.864 433.705 519.864Z" fill="black"/>
<path opacity="0.1" d="M429.707 511.326C430.134 511.326 430.48 510.982 430.48 510.558C430.48 510.134 430.134 509.79 429.707 509.79C429.281 509.79 428.935 510.134 428.935 510.558C428.935 510.982 429.281 511.326 429.707 511.326Z" fill="black"/>
<path opacity="0.1" d="M436.413 527.11C436.839 527.11 437.185 526.767 437.185 526.342C437.185 525.918 436.839 525.574 436.413 525.574C435.986 525.574 435.641 525.918 435.641 526.342C435.641 526.767 435.986 527.11 436.413 527.11Z" fill="black"/>
<path opacity="0.1" d="M431.77 528.068C432.197 528.068 432.542 527.724 432.542 527.3C432.542 526.876 432.197 526.532 431.77 526.532C431.343 526.532 430.998 526.876 430.998 527.3C430.998 527.724 431.343 528.068 431.77 528.068Z" fill="black"/>
<path d="M315.741 547.467C315.741 547.467 330.097 518.798 336.503 517.551L315.741 547.467Z" fill="#3C5701"/>
<path d="M319.357 553.556C319.357 553.556 333.713 524.888 340.119 523.641L319.357 553.556Z" fill="#3C5701"/>
<path d="M322.492 559.881C322.492 559.881 336.839 531.203 343.244 529.966L322.492 559.881Z" fill="#3C5701"/>
<path d="M377.717 541.919C377.717 541.919 392.073 513.25 398.469 512.004L377.717 541.919Z" fill="#3C5701"/>
<path d="M381.306 547.964C381.306 547.964 395.662 519.295 402.058 518.048L381.306 547.964Z" fill="#3C5701"/>
<path d="M384.459 554.288C384.459 554.288 398.815 525.62 405.22 524.373L384.459 554.288Z" fill="#3C5701"/>
<path d="M564.481 513.079C564.481 513.079 578.828 484.41 585.233 483.172L564.481 513.079Z" fill="#3C5701"/>
<path d="M568.097 519.177C568.097 519.177 582.444 490.5 588.85 489.262L568.097 519.177Z" fill="#3C5701"/>
<path d="M571.204 525.493C571.204 525.493 585.551 496.824 591.957 495.587L571.204 525.493Z" fill="#3C5701"/>
<path d="M333.259 553.05C333.259 553.05 323.346 522.584 327.044 517.235L333.259 553.05Z" fill="#3C5701"/>
<path d="M389.602 549.671C389.602 549.671 379.689 519.205 383.387 513.865L389.602 549.671Z" fill="#3C5701"/>
<path d="M571.204 529.866C571.204 529.866 561.3 499.399 565.007 494.032L571.204 529.866Z" fill="#3C5701"/>
<path d="M811.722 573.298C811.722 573.298 799.147 551.153 780.184 544.765C772.232 542.139 765.352 537.019 760.576 530.173C758.331 526.906 756.394 523.44 754.788 519.819" stroke="#4B6F00" stroke-width="2" stroke-miterlimit="10"/>
<path d="M743.585 516.413C745.738 518.5 755.787 520.65 755.787 520.65C755.787 520.65 753.325 510.712 751.162 508.642C750.66 508.099 750.052 507.662 749.374 507.361C748.696 507.059 747.964 506.898 747.221 506.888C746.479 506.878 745.742 507.019 745.056 507.302C744.37 507.585 743.75 508.005 743.233 508.535C742.716 509.065 742.313 509.694 742.05 510.385C741.786 511.075 741.667 511.811 741.7 512.549C741.733 513.287 741.917 514.01 742.241 514.674C742.565 515.339 743.022 515.93 743.585 516.413V516.413Z" fill="#668E0E"/>
<path d="M748.565 533.67C751.518 534.257 761.131 530.625 761.131 530.625C761.131 530.625 753.635 523.632 750.682 523.054C749.305 522.866 747.908 523.208 746.776 524.01C745.645 524.813 744.864 526.014 744.593 527.37C744.323 528.726 744.584 530.133 745.322 531.304C746.06 532.475 747.22 533.321 748.565 533.67V533.67Z" fill="#668E0E"/>
<path d="M769.28 553.105C772.124 552.129 778.584 544.169 778.584 544.169C778.584 544.169 768.59 541.892 765.718 542.868C764.411 543.381 763.354 544.376 762.767 545.646C762.18 546.916 762.109 548.362 762.568 549.683C763.028 551.004 763.982 552.097 765.233 552.734C766.484 553.372 767.934 553.505 769.28 553.105V553.105Z" fill="#668E0E"/>
<path d="M788.252 564.299C791.223 563.812 798.937 557.071 798.937 557.071C798.937 557.071 789.452 553.141 786.481 553.629C785.75 553.718 785.045 553.955 784.408 554.323C783.772 554.691 783.217 555.184 782.777 555.771C782.337 556.358 782.021 557.028 781.849 557.74C781.676 558.452 781.651 559.191 781.774 559.913C781.897 560.635 782.165 561.325 782.564 561.941C782.962 562.557 783.482 563.087 784.091 563.497C784.701 563.908 785.388 564.192 786.111 564.331C786.834 564.47 787.578 564.463 788.298 564.308L788.252 564.299Z" fill="#668E0E"/>
<path d="M769.507 522.873C769.507 525.864 764.055 534.537 764.055 534.537C764.055 534.537 758.604 525.873 758.604 522.882C758.604 521.444 759.178 520.065 760.201 519.049C761.223 518.032 762.61 517.461 764.055 517.461C765.501 517.461 766.888 518.032 767.91 519.049C768.933 520.065 769.507 521.444 769.507 522.882V522.873Z" fill="#668E0E"/>
<path d="M791.55 536.245C790.641 539.1 782.846 545.759 782.846 545.759C782.846 545.759 780.256 535.82 781.156 533.01C781.636 531.701 782.605 530.625 783.862 530.008C785.119 529.39 786.567 529.278 787.905 529.694C789.243 530.11 790.369 531.023 791.047 532.243C791.726 533.463 791.906 534.896 791.55 536.245V536.245Z" fill="#668E0E"/>
<path d="M811.185 552.174C810.776 555.138 804.225 563.016 804.225 563.016C804.225 563.016 799.991 553.701 800.391 550.737C800.642 549.365 801.415 548.142 802.549 547.322C803.684 546.503 805.092 546.149 806.482 546.335C807.872 546.521 809.136 547.233 810.012 548.322C810.888 549.411 811.308 550.794 811.185 552.183V552.174Z" fill="#4F7204"/>
<path d="M810.995 572.865C810.995 572.865 808.532 547.566 793.813 534.077C787.609 528.466 783.401 521.006 781.819 512.817C781.1 508.924 780.741 504.974 780.747 501.017" stroke="#4B6F00" stroke-width="2" stroke-miterlimit="10"/>
<path d="M771.525 493.87C772.652 496.644 780.965 502.67 780.965 502.67C780.965 502.67 782.782 492.596 781.629 489.822C781.047 488.551 779.995 487.551 778.691 487.032C777.386 486.514 775.931 486.515 774.629 487.037C773.326 487.559 772.276 488.561 771.697 489.834C771.119 491.107 771.057 492.553 771.525 493.87Z" fill="#668E0E"/>
<path d="M769.408 511.199C771.87 512.916 782.128 513.476 782.128 513.476C782.128 513.476 778.13 504.062 775.677 502.345C774.495 501.601 773.07 501.337 771.697 501.609C770.325 501.881 769.11 502.667 768.305 503.805C767.499 504.943 767.164 506.345 767.37 507.721C767.575 509.098 768.305 510.343 769.408 511.199V511.199Z" fill="#668E0E"/>
<path d="M780.411 537.284C783.41 537.537 792.559 532.866 792.559 532.866C792.559 532.866 784.318 526.749 781.329 526.496C780.595 526.394 779.848 526.442 779.133 526.637C778.418 526.832 777.751 527.17 777.172 527.63C776.593 528.091 776.114 528.663 775.765 529.314C775.417 529.964 775.205 530.678 775.143 531.413C775.081 532.147 775.171 532.886 775.406 533.585C775.641 534.284 776.017 534.928 776.511 535.478C777.005 536.027 777.606 536.471 778.278 536.781C778.951 537.092 779.679 537.263 780.42 537.284H780.411Z" fill="#668E0E"/>
<path d="M793.213 555.174C796.121 555.924 805.934 552.861 805.934 552.861C805.934 552.861 798.856 545.443 795.939 544.729C795.233 544.505 794.488 544.427 793.75 544.499C793.013 544.572 792.297 544.793 791.649 545.149C791 545.505 790.431 545.99 789.976 546.572C789.522 547.155 789.192 547.823 789.007 548.537C788.821 549.251 788.784 549.994 788.897 550.723C789.01 551.451 789.272 552.149 789.666 552.774C790.059 553.398 790.577 553.937 791.187 554.355C791.797 554.774 792.487 555.065 793.213 555.21V555.174Z" fill="#668E0E"/>
<path d="M792.949 509.754C791.732 512.464 783.227 518.22 783.227 518.22C783.227 518.22 781.783 508.1 783 505.363C783.262 504.672 783.663 504.041 784.178 503.51C784.693 502.978 785.312 502.557 785.997 502.272C786.682 501.987 787.418 501.844 788.16 501.852C788.902 501.86 789.635 502.018 790.314 502.318C790.992 502.617 791.602 503.051 792.106 503.593C792.61 504.136 792.997 504.774 793.244 505.471C793.49 506.167 793.592 506.906 793.541 507.642C793.49 508.379 793.289 509.097 792.949 509.754V509.754Z" fill="#668E0E"/>
<path d="M807.66 530.86C805.67 533.11 795.848 536.046 795.848 536.046C795.848 536.046 797.511 525.963 799.483 523.713C800.459 522.723 801.779 522.143 803.173 522.092C804.566 522.041 805.926 522.522 806.973 523.438C808.02 524.353 808.675 525.632 808.803 527.013C808.93 528.393 808.522 529.77 807.66 530.86V530.86Z" fill="#668E0E"/>
<path d="M819.117 553.331C817.545 555.879 808.341 560.432 808.341 560.432C808.341 560.432 808.259 550.204 809.84 547.656C810.197 547.014 810.68 546.451 811.262 546C811.844 545.55 812.512 545.221 813.225 545.034C813.938 544.847 814.682 544.807 815.411 544.914C816.141 545.021 816.841 545.275 817.469 545.659C818.097 546.043 818.64 546.55 819.066 547.149C819.491 547.748 819.79 548.427 819.944 549.144C820.098 549.861 820.104 550.602 819.962 551.322C819.82 552.041 819.533 552.725 819.117 553.331V553.331Z" fill="#668E0E"/>
<path d="M253.474 365.552C253.474 365.552 270.483 364.54 268.475 376.394C268.579 376.996 268.49 377.616 268.219 378.164C267.948 378.713 267.51 379.162 266.967 379.448C266.967 379.448 266.967 378.545 265.223 378.861C264.622 378.962 264.012 378.993 263.405 378.951C262.572 378.904 261.777 378.587 261.143 378.048V378.048C261.143 378.048 256.364 376.087 254.501 368.317C254.501 368.317 253.129 366.618 253.183 366.184L256.055 367.404C255.504 368.587 255.426 369.934 255.837 371.172C255.837 371.172 255.937 367.477 256.482 367.558C256.6 367.558 257.981 368.272 257.981 368.272C257.981 368.272 256.291 371.886 257.563 374.461C257.563 374.461 257.081 370.043 258.472 368.534L260.489 369.699C260.489 369.699 258.517 373.413 259.853 376.43C259.853 376.43 259.507 371.795 260.916 369.988L262.733 371.407C262.733 371.407 260.916 375.021 262.015 377.569C262.015 377.569 262.161 372.148 263.133 371.759C263.816 372.347 264.427 373.014 264.95 373.747C264.95 373.747 263.678 376.394 264.468 377.795C264.468 377.795 264.95 374.181 265.377 374.181C266.206 375.403 266.803 376.766 267.14 378.201C267.059 376.69 266.583 375.227 265.759 373.955C266.679 374.127 267.529 374.564 268.203 375.211C268.203 375.211 267.957 373.53 265.368 373.404C264.887 372.703 264.326 372.06 263.696 371.488C265.092 371.368 266.499 371.531 267.83 371.967C267.83 371.967 266.458 370.377 263.224 371.064L261.406 369.591C261.406 369.591 264.795 369.13 266.24 369.645C266.24 369.645 264.577 368.235 260.925 369.256L258.953 368.091C260.468 367.758 262.019 367.624 263.569 367.693C263.569 367.693 261.752 366.718 258.372 367.775L256.963 367.142C256.963 367.142 259.089 366.736 259.689 366.663C260.289 366.591 260.343 366.428 260.343 366.428C259.001 366.209 257.624 366.362 256.364 366.871C256.364 366.871 253.42 365.733 253.474 365.552Z" fill="#759F1B"/>
<path d="M335.821 330.143C335.821 330.143 352.83 329.122 350.822 340.985C350.926 341.586 350.836 342.204 350.565 342.751C350.294 343.298 349.856 343.746 349.314 344.03C349.314 344.03 349.314 343.127 347.57 343.452C346.969 343.546 346.359 343.573 345.752 343.533C344.923 343.483 344.132 343.166 343.499 342.63C343.499 342.63 338.711 340.66 336.857 332.89C336.857 332.89 335.476 331.191 335.531 330.758L338.402 331.977C337.852 333.161 337.777 334.508 338.193 335.745C338.193 335.745 338.284 332.05 338.838 332.131C338.947 332.131 340.328 332.845 340.328 332.845C340.328 332.845 338.647 336.459 339.919 339.043C339.919 339.043 339.438 334.625 340.828 333.107L342.854 334.281C342.854 334.281 340.882 337.986 342.218 341.003C342.218 341.003 341.873 336.368 343.272 334.561L345.089 335.98C345.089 335.98 343.272 339.639 344.362 342.142C344.362 342.142 344.517 336.721 345.489 336.332C346.173 336.92 346.783 337.587 347.306 338.32C347.306 338.32 346.034 340.967 346.824 342.368C346.824 342.368 347.306 338.754 347.733 338.754C348.562 339.976 349.159 341.339 349.496 342.774C349.415 341.263 348.939 339.8 348.115 338.528C349.035 338.7 349.885 339.137 350.559 339.784C350.559 339.784 350.314 338.103 347.724 337.977C347.243 337.276 346.682 336.633 346.052 336.061C347.449 335.946 348.854 336.109 350.186 336.54C350.186 336.54 348.814 334.95 345.58 335.636L343.762 334.164C343.762 334.164 347.152 333.703 348.587 334.218C348.587 334.218 346.934 332.809 343.272 333.839L341.309 332.664C342.821 332.331 344.369 332.198 345.916 332.266C345.916 332.266 344.099 331.291 340.728 332.348L339.319 331.724C339.319 331.724 341.436 331.309 342.045 331.245C342.654 331.182 342.699 331.011 342.699 331.011C341.358 330.786 339.98 330.936 338.72 331.444C337.717 331.095 336.748 330.66 335.821 330.143V330.143Z" fill="#759F1B"/>
<path d="M391.046 199.557C391.046 199.557 408.064 198.536 406.056 210.4C406.16 211.001 406.069 211.619 405.799 212.165C405.528 212.712 405.09 213.16 404.548 213.445C404.548 213.445 404.548 212.541 402.803 212.866C402.202 212.96 401.593 212.987 400.986 212.948C400.154 212.897 399.36 212.58 398.724 212.044C398.724 212.044 393.944 210.074 392.091 202.304C392.091 202.304 390.71 200.615 390.764 200.172L393.635 201.392C393.085 202.578 393.01 203.929 393.426 205.168C393.426 205.168 393.517 201.473 394.072 201.554C394.181 201.554 395.562 202.268 395.562 202.268C395.562 202.268 393.872 205.882 395.153 208.466C395.153 208.466 394.662 204.048 396.061 202.53L398.088 203.705C398.088 203.705 396.116 207.409 397.452 210.427C397.452 210.427 397.106 205.792 398.506 203.985L400.323 205.412C400.323 205.412 398.506 209.026 399.596 211.565C399.596 211.565 399.75 206.144 400.723 205.765C401.407 206.349 402.017 207.013 402.54 207.743C402.54 207.743 401.268 210.391 402.058 211.791C402.058 211.791 402.54 208.177 402.967 208.177C403.8 209.397 404.397 210.761 404.729 212.198C404.654 210.687 404.181 209.223 403.357 207.951C404.278 208.124 405.128 208.56 405.802 209.207C405.802 209.207 405.556 207.527 402.967 207.4C402.481 206.7 401.921 206.055 401.295 205.476C402.691 205.361 404.097 205.524 405.429 205.954C405.429 205.954 404.057 204.364 400.823 205.051L399.005 203.587C399.005 203.587 402.394 203.117 403.83 203.632C403.83 203.632 402.176 202.223 398.515 203.253L396.543 202.078C398.058 201.75 399.609 201.617 401.159 201.681C401.159 201.681 399.341 200.705 395.971 201.762L394.562 201.139C394.562 201.139 396.679 200.723 397.288 200.66C397.897 200.597 397.942 200.425 397.942 200.425C396.601 200.2 395.223 200.35 393.963 200.859C392.955 200.509 391.979 200.073 391.046 199.557V199.557Z" fill="#759F1B"/>
<path d="M440.574 161.167C440.574 161.167 457.583 160.146 455.584 172.009C455.685 172.611 455.593 173.229 455.321 173.776C455.048 174.322 454.61 174.77 454.067 175.054C454.067 175.054 454.067 174.15 452.322 174.476C451.722 174.577 451.112 174.608 450.505 174.566C449.673 174.515 448.879 174.198 448.243 173.663C448.243 173.663 443.463 171.702 441.601 163.932C441.601 163.932 440.229 162.233 440.283 161.799L443.091 162.983C442.541 164.166 442.466 165.514 442.882 166.751C442.882 166.751 442.973 163.055 443.527 163.137C443.636 163.137 445.017 163.85 445.017 163.85C445.017 163.85 443.327 167.464 444.599 170.039C444.599 170.039 444.118 165.621 445.508 164.103L447.525 165.278C447.525 165.278 445.553 168.982 446.889 172.009C446.889 172.009 446.553 167.374 447.952 165.567L449.769 166.986C449.769 166.986 447.952 170.6 449.042 173.148C449.042 173.148 449.188 167.726 450.16 167.338C450.846 167.92 451.457 168.584 451.977 169.317C451.977 169.317 450.714 171.973 451.495 173.373C451.495 173.373 451.986 169.759 452.404 169.759C453.237 170.976 453.835 172.336 454.167 173.771C454.092 172.26 453.618 170.796 452.795 169.524C453.717 169.698 454.567 170.138 455.239 170.789C455.239 170.789 454.984 169.1 452.395 168.982C451.914 168.282 451.353 167.639 450.723 167.067C452.122 166.947 453.531 167.107 454.866 167.537C454.866 167.537 453.485 165.947 450.251 166.633L448.542 165.151C448.542 165.151 451.941 164.691 453.376 165.151C453.376 165.151 451.723 163.751 448.061 164.772L446.089 163.597C447.604 163.269 449.156 163.139 450.705 163.209C450.705 163.209 448.888 162.233 445.517 163.29L444.109 162.658C444.109 162.658 446.226 162.242 446.834 162.179C447.443 162.116 447.489 161.944 447.489 161.944C446.146 161.718 444.768 161.871 443.509 162.387C443.509 162.387 440.529 161.357 440.574 161.167Z" fill="#759F1B"/>
<path d="M547.29 95.4178C547.29 95.4178 553.332 111.265 541.348 112.892C540.801 113.166 540.181 113.262 539.575 113.167C538.97 113.071 538.411 112.788 537.977 112.359C537.977 112.359 538.812 112.07 537.977 110.552C537.697 110.001 537.486 109.419 537.35 108.817C537.164 108.014 537.247 107.174 537.586 106.423V106.423C537.586 106.423 538.049 101.3 544.955 97.2248C544.955 97.2248 546.172 95.4177 546.608 95.3364L546.29 98.4265C544.993 98.2526 543.677 98.5756 542.61 99.33C542.61 99.33 546.19 98.318 546.245 98.8692C546.245 98.9776 546.009 100.496 546.009 100.496C546.009 100.496 542.065 99.9624 539.939 101.941C539.939 101.941 544.037 100.134 545.918 101.038L545.391 103.305C545.391 103.305 541.248 102.537 538.74 104.706C538.74 104.706 543.092 102.998 545.236 103.802L544.419 105.962C544.419 105.962 540.366 105.293 538.295 107.109C538.295 107.109 543.519 105.646 544.201 106.45C543.846 107.281 543.391 108.067 542.847 108.79C542.847 108.79 539.921 108.374 538.812 109.531C538.812 109.531 542.447 108.925 542.547 109.296C541.622 110.446 540.492 111.417 539.212 112.16C540.627 111.633 541.88 110.748 542.847 109.594C542.954 110.526 542.783 111.468 542.356 112.304C542.356 112.304 543.901 111.573 543.265 109.07C543.795 108.404 544.247 107.68 544.609 106.91C545.138 108.201 545.401 109.583 545.382 110.976C545.382 110.976 546.499 109.169 544.846 106.341L545.754 104.191C545.754 104.191 547.208 107.272 547.144 108.79C547.144 108.79 547.998 106.802 545.927 103.631L546.472 101.417C547.239 102.753 547.826 104.184 548.217 105.673C548.217 105.673 548.616 103.658 546.599 100.776L546.781 99.2487C546.781 99.2487 547.808 101.137 548.062 101.706C548.317 102.275 548.48 102.257 548.48 102.257C548.289 100.928 547.733 99.6776 546.872 98.6433C546.914 97.5579 547.054 96.4784 547.29 95.4178V95.4178Z" fill="#759F1B"/>
<path d="M856.734 374.126C856.734 374.126 873.743 373.105 871.735 384.969C871.838 385.57 871.748 386.187 871.477 386.734C871.206 387.281 870.769 387.729 870.226 388.013C870.226 388.013 870.226 387.11 868.482 387.435C867.882 387.537 867.272 387.567 866.665 387.526C865.832 387.475 865.039 387.158 864.402 386.622C864.402 386.622 859.623 384.661 857.76 376.891C857.76 376.891 856.388 375.193 856.443 374.759L859.314 375.979C858.764 377.162 858.689 378.51 859.105 379.746C859.105 379.746 859.196 376.051 859.75 376.132C859.859 376.132 861.24 376.846 861.24 376.846C861.24 376.846 859.55 380.46 860.822 383.035C860.822 383.035 860.341 378.617 861.731 377.099L863.748 378.274C863.748 378.274 861.776 381.978 863.112 385.005C863.112 385.005 862.767 380.37 864.175 378.563L865.992 379.981C865.992 379.981 864.175 383.595 865.275 386.143C865.275 386.143 865.42 380.722 866.392 380.334C867.076 380.918 867.686 381.582 868.209 382.312C868.209 382.312 866.946 384.969 867.728 386.369C867.728 386.369 868.209 382.755 868.636 382.755C869.47 383.972 870.067 385.332 870.399 386.767C870.319 385.257 869.846 383.794 869.027 382.52C869.947 382.699 870.796 383.139 871.471 383.785C871.471 383.785 871.217 382.095 868.627 381.978C868.147 381.277 867.586 380.634 866.955 380.063C868.354 379.943 869.763 380.102 871.099 380.532C871.099 380.532 869.718 378.942 866.483 379.629L864.666 378.165C864.666 378.165 868.055 377.704 869.5 378.21C869.5 378.21 867.846 376.81 864.184 377.831L862.213 376.656C863.728 376.328 865.279 376.197 866.828 376.268C866.828 376.268 865.011 375.292 861.64 376.349L860.232 375.717C860.232 375.717 862.349 375.301 862.958 375.238C863.566 375.175 863.612 375.003 863.612 375.003C862.27 374.777 860.891 374.93 859.632 375.446C859.632 375.446 856.679 374.316 856.734 374.126Z" fill="#759F1B"/>
<path d="M326.871 414.523C326.871 414.523 337.393 427.859 326.444 432.955C326.006 433.382 325.443 433.66 324.835 433.749C324.228 433.838 323.608 433.734 323.064 433.451C323.064 433.451 323.773 432.927 322.555 431.699C322.125 431.255 321.747 430.764 321.429 430.235C321.001 429.52 320.819 428.686 320.911 427.859V427.859C320.911 427.859 319.821 422.835 325.19 416.89C325.19 416.89 325.808 414.803 326.199 414.595L326.826 417.64C325.533 417.864 324.373 418.568 323.582 419.61C323.582 419.61 326.699 417.586 326.935 418.092C326.989 418.191 327.198 419.718 327.198 419.718C327.198 419.718 323.264 420.378 321.838 422.898C321.838 422.898 325.218 419.989 327.289 420.296L327.471 422.609C327.471 422.609 323.282 423.106 321.538 425.916C321.538 425.916 325.172 422.998 327.471 423.124L327.344 425.428C327.344 425.428 323.264 425.988 321.838 428.338C321.838 428.338 326.381 425.392 327.289 425.952C327.205 426.853 327.006 427.739 326.699 428.591C326.699 428.591 323.791 429.06 323.064 430.497C323.064 430.497 326.308 428.853 326.544 429.169C326.008 430.541 325.223 431.802 324.227 432.891C325.43 431.967 326.37 430.746 326.953 429.35C327.329 430.201 327.449 431.142 327.298 432.06C327.298 432.06 328.552 430.895 327.198 428.69C327.504 427.898 327.718 427.073 327.834 426.232C328.723 427.296 329.39 428.524 329.797 429.846C329.797 429.846 330.324 427.814 327.889 425.582L328.08 423.269C328.08 423.269 330.388 425.781 330.806 427.244C330.806 427.244 331.033 425.094 328.08 422.727L327.925 420.45C329.059 421.502 330.051 422.696 330.878 424.001C330.878 424.001 330.651 421.959 327.853 419.799L327.58 418.291C327.58 418.291 329.125 419.79 329.524 420.26C329.924 420.73 330.097 420.658 330.097 420.658C329.518 419.435 328.609 418.397 327.471 417.658C327.471 417.658 326.69 414.577 326.871 414.523Z" fill="#759F1B"/>
<path d="M870.208 315.895C870.208 315.895 880.73 329.231 869.781 334.335C869.343 334.762 868.78 335.041 868.172 335.13C867.565 335.219 866.945 335.115 866.401 334.832C866.401 334.832 867.11 334.308 865.892 333.071C865.462 332.627 865.084 332.136 864.766 331.607C864.338 330.895 864.156 330.064 864.248 329.24V329.24C864.248 329.24 863.157 324.207 868.527 318.262C868.527 318.262 869.145 316.175 869.536 315.976L870.163 319.012C868.868 319.236 867.707 319.944 866.919 320.99C866.919 320.99 870.036 318.967 870.272 319.464C870.326 319.563 870.535 321.09 870.535 321.09C870.535 321.09 866.61 321.749 865.175 324.27C865.175 324.27 868.555 321.361 870.626 321.668L870.808 323.99C870.808 323.99 866.619 324.478 864.875 327.297C864.875 327.297 868.509 324.379 870.808 324.496L870.681 326.8C870.681 326.8 866.601 327.36 865.175 329.719C865.175 329.719 869.718 326.764 870.626 327.333C870.541 328.231 870.343 329.114 870.036 329.962C870.036 329.962 867.128 330.432 866.401 331.878C866.401 331.878 869.645 330.224 869.89 330.541C869.35 331.912 868.561 333.174 867.564 334.263C868.767 333.339 869.707 332.118 870.29 330.721C870.665 331.573 870.785 332.514 870.635 333.432C870.635 333.432 871.889 332.266 870.535 330.071C870.841 329.279 871.055 328.454 871.171 327.613C872.062 328.676 872.729 329.904 873.134 331.227C873.134 331.227 873.661 329.203 871.226 326.963L871.417 324.65C871.417 324.65 873.725 327.162 874.143 328.625C874.143 328.625 874.37 326.475 871.417 324.062L871.262 321.786C872.396 322.838 873.388 324.032 874.215 325.336C874.215 325.336 873.988 323.294 871.19 321.135L870.917 319.626C870.917 319.626 872.462 321.126 872.871 321.596C873.279 322.066 873.434 321.993 873.434 321.993C872.852 320.773 871.944 319.735 870.808 318.994C870.808 318.994 870.027 315.967 870.208 315.895Z" fill="#759F1B"/>
<path d="M914.657 408.569C914.657 408.569 916.656 425.401 904.663 424.082C904.065 424.219 903.439 424.164 902.874 423.925C902.309 423.687 901.835 423.277 901.519 422.754C901.519 422.754 902.428 422.681 902.01 420.947C901.875 420.354 901.808 419.748 901.81 419.14C901.818 418.306 902.098 417.497 902.609 416.836V416.836C902.609 416.836 904.308 411.984 912.004 409.689C912.004 409.689 913.631 408.225 914.076 408.252L913.013 411.18C911.793 410.7 910.435 410.7 909.215 411.18C909.215 411.18 912.931 411.062 912.849 411.613C912.849 411.731 912.213 413.14 912.213 413.14C912.213 413.14 908.515 411.668 905.971 413.077C905.971 413.077 910.387 412.345 911.986 413.673L910.923 415.752C910.923 415.752 907.089 414.008 904.136 415.508C904.136 415.508 908.77 414.902 910.66 416.185L909.342 418.083C909.342 418.083 905.571 416.456 903.118 417.721C903.118 417.721 908.57 417.559 909.006 418.498C908.46 419.221 907.828 419.876 907.125 420.45C907.125 420.45 904.399 419.339 903.027 420.197C903.027 420.197 906.662 420.477 906.707 420.865C905.531 421.763 904.197 422.435 902.773 422.844C904.286 422.679 905.73 422.125 906.962 421.236C906.836 422.16 906.445 423.029 905.835 423.739C905.835 423.739 907.516 423.395 907.516 420.811C907.516 420.811 909.251 419.402 909.333 419.004C909.532 420.385 909.452 421.792 909.097 423.142C909.097 423.142 910.614 421.688 909.696 418.516L911.068 416.637C911.068 416.637 911.723 419.98 911.296 421.435C911.296 421.435 912.613 419.709 911.377 416.131L912.44 414.116C912.853 415.588 913.076 417.106 913.104 418.634C913.104 418.634 914.012 416.772 912.722 413.484L913.276 412.056C913.276 412.056 913.812 414.134 913.912 414.767C914.012 415.399 914.185 415.399 914.185 415.399C914.334 414.055 914.101 412.697 913.513 411.478C913.513 411.478 914.43 408.523 914.657 408.569Z" fill="#759F1B"/>
<path d="M953.355 531.212C954.916 529.937 956.056 528.225 956.626 526.297C957.053 524.346 956.217 522.005 954.336 521.292C952.237 520.488 949.993 521.942 948.285 523.406C946.577 524.87 944.65 526.532 942.406 526.225C943.544 525.188 944.394 523.876 944.871 522.416C945.349 520.957 945.439 519.399 945.132 517.894C945.028 517.271 944.762 516.685 944.36 516.196C943.187 514.958 941.08 515.491 939.68 516.467C935.237 519.575 934.002 525.574 933.974 530.977C933.529 529.026 933.902 527.002 933.893 524.996C933.883 522.99 933.329 520.786 931.63 519.711C930.576 519.148 929.391 518.87 928.196 518.906C926.197 518.834 923.971 519.033 922.608 520.488C920.909 522.295 921.354 525.321 922.826 527.309C924.298 529.297 926.542 530.535 928.604 531.908C930.26 532.891 931.673 534.231 932.739 535.829C932.861 536.052 932.964 536.285 933.047 536.525H945.559C948.387 535.113 951.009 533.325 953.355 531.212Z" fill="#668E0E"/>
<path d="M708.659 541.287C710.226 540.018 711.369 538.308 711.939 536.38C712.357 534.42 711.521 532.08 709.649 531.375C707.541 530.571 705.297 532.016 703.598 533.48C701.899 534.944 699.963 536.615 697.71 536.308C698.85 535.27 699.7 533.957 700.178 532.495C700.655 531.034 700.744 529.475 700.436 527.969C700.341 527.345 700.073 526.76 699.664 526.279C698.501 525.041 696.383 525.574 694.993 526.55C690.55 529.658 689.305 535.658 689.287 541.061C688.833 539.109 689.215 537.076 689.205 535.079C689.196 533.083 688.642 530.869 686.943 529.794C685.887 529.227 684.699 528.949 683.499 528.99C681.501 528.917 679.283 529.116 677.921 530.571C676.221 532.378 676.658 535.396 678.139 537.383C679.62 539.371 681.855 540.618 683.917 541.991C685.571 542.974 686.983 544.31 688.052 545.904C688.173 546.129 688.274 546.365 688.351 546.608H700.872C703.699 545.196 706.319 543.405 708.659 541.287V541.287Z" fill="#668E0E"/>
<path d="M171.945 479.576C171.945 479.576 175.815 479.242 177.097 480.317C177.097 480.317 172.717 481.446 172.263 482.35C172.263 482.35 172.354 482.44 172.717 482.35C173.081 482.26 175.388 481.772 175.879 482.35L176.043 482.63L176.215 482.738L176.47 482.91C176.626 483.013 176.747 483.161 176.815 483.335C176.897 483.588 177.097 483.335 177.097 483.335C177.097 483.335 177.387 483.931 177.296 484.094C177.206 484.256 177.578 484.663 177.578 484.663V486.47L177.724 486.334C177.763 487.474 178.045 488.591 178.55 489.614C178.55 489.614 180.286 493.996 180.885 494.331H181.249C181.249 494.331 183.866 497.782 186.373 498.514C188.881 499.246 189.017 500.014 189.017 500.014L185.883 503.465C185.289 503.511 184.699 503.605 184.12 503.745C185.206 503.861 186.299 503.901 187.391 503.863L189.808 500.691C190.115 500.761 190.4 500.908 190.635 501.116C190.786 501.162 190.93 501.229 191.062 501.315C191.262 501.459 191.407 501.315 191.571 501.378C191.734 501.441 190.29 503.863 190.29 503.863H188.681L190.017 504.342C190.471 504.513 191.407 503.944 191.407 503.944L192.688 501.631L193.206 502.083V501.767C193.206 501.767 193.742 502.083 193.969 502.029C194.197 501.974 193.688 501.658 193.688 501.658C193.94 501.702 194.198 501.702 194.451 501.658C194.596 501.577 194.315 501.116 194.315 501.116V500.782C194.315 500.782 193.47 500.782 193.579 500.61C193.688 500.438 193.997 500.357 194.533 500.61C195.069 500.863 198.358 502.282 199.612 501.767C200.426 502.394 201.303 502.936 202.229 503.384C202.846 503.528 203.564 504.595 203.564 504.595C203.564 504.595 206.208 507.305 207.771 506.637C207.474 506.167 207.236 505.664 207.062 505.137C206.971 504.658 205.036 503.104 205.036 503.104C205.036 503.104 209.134 504.062 209.134 503.781C209.134 503.781 211.178 504.938 211.296 504.938C211.415 504.938 211.296 504.233 210.188 503.411L211.733 503.637C211.704 503.278 211.569 502.936 211.344 502.655C211.119 502.373 210.814 502.164 210.47 502.056C210.096 501.541 209.612 501.115 209.052 500.809L202.647 497.276C202.647 497.276 203.273 496.96 202.565 496.056C202.761 495.991 202.962 495.936 203.164 495.894C203.528 495.803 200.293 493.093 200.202 493.102C199.785 492.81 199.438 492.431 199.185 491.991C199.067 491.647 196.141 489.949 196.141 489.949C196.141 489.949 193.615 489.777 191.88 486.334C190.144 482.892 186.019 482.513 186.019 482.513C186.019 482.513 184.538 475.221 177.542 477.995C177.469 478.049 172.681 478.302 171.945 479.576Z" fill="#3196F2"/>
<path d="M623.076 436.207C622.604 436.966 621.177 436.514 620.723 437.282C620.582 437.708 620.582 438.167 620.723 438.593C620.743 439.033 620.659 439.472 620.475 439.874C620.292 440.275 620.016 440.628 619.67 440.903C619.323 441.178 618.916 441.367 618.482 441.456C618.047 441.544 617.598 441.529 617.171 441.412C617.102 442.591 616.593 443.703 615.744 444.529C615.21 444.863 614.585 445.025 613.955 444.991C613.326 444.957 612.722 444.729 612.228 444.339C611.252 443.535 610.529 442.468 610.147 441.267C609.611 439.848 609.238 438.24 607.994 437.328C607.548 436.993 607.03 436.786 606.594 436.424C605.672 435.599 605.035 434.505 604.777 433.298C604.395 431.804 603.906 430.34 603.314 428.916C602.709 427.483 601.61 426.311 600.216 425.609C598.898 425.004 597.372 425.04 596 424.561C594.982 424.167 594.023 423.638 593.147 422.989C592.037 422.146 590.836 421.428 589.567 420.847C588.819 420.534 588.112 420.134 587.459 419.655C586.97 419.408 586.559 419.032 586.27 418.568C585.982 418.104 585.827 417.571 585.824 417.026C585.618 416.003 585.221 415.028 584.651 414.152C584.034 413.014 583.479 411.912 583.879 410.746C584.279 409.581 585.515 408.876 585.933 407.737C586.125 406.951 586.178 406.138 586.087 405.334C586.051 404.928 586.115 404.519 586.273 404.143C586.431 403.766 586.679 403.434 586.996 403.175C588.059 402.47 589.349 403.355 590.63 403.708C591.078 403.854 591.557 403.885 592.02 403.798C592.429 403.652 592.83 403.483 593.22 403.292C595.209 402.497 597.454 403.934 598.562 405.741C599.671 407.548 600.107 409.698 601.061 411.595C601.387 412.331 601.897 412.972 602.542 413.457C602.862 413.7 603.242 413.852 603.641 413.898C604.041 413.944 604.446 413.882 604.813 413.719L605.904 416.149C606.458 417.396 607.03 418.634 607.594 419.881C608.312 421.471 609.148 423.188 610.756 423.892C611.474 424.199 612.273 424.263 613.009 424.516C613.802 424.797 614.509 425.278 615.059 425.911C615.61 426.545 615.987 427.309 616.153 428.13C616.199 428.68 616.296 429.224 616.444 429.756C617.061 431.41 619.169 431.78 620.741 432.647C621.638 433.155 622.389 433.883 622.922 434.762C623.084 434.963 623.185 435.206 623.212 435.462C623.24 435.718 623.193 435.977 623.076 436.207V436.207Z" fill="#3F3D56"/>
<path opacity="0.1" d="M623.076 436.207C622.604 436.966 621.177 436.514 620.723 437.282C620.582 437.708 620.582 438.167 620.723 438.593C620.743 439.033 620.659 439.472 620.475 439.874C620.292 440.275 620.016 440.628 619.67 440.903C619.323 441.178 618.916 441.367 618.482 441.456C618.047 441.544 617.598 441.529 617.171 441.412C617.102 442.591 616.593 443.703 615.744 444.529C615.21 444.863 614.585 445.025 613.955 444.991C613.326 444.957 612.722 444.729 612.228 444.339C611.252 443.535 610.529 442.468 610.147 441.267C609.611 439.848 609.238 438.24 607.994 437.328C607.548 436.993 607.03 436.786 606.594 436.424C605.672 435.599 605.035 434.505 604.777 433.298C604.395 431.804 603.906 430.34 603.314 428.916C602.709 427.483 601.61 426.311 600.216 425.609C598.898 425.004 597.372 425.04 596 424.561C594.982 424.167 594.023 423.638 593.147 422.989C592.037 422.146 590.836 421.428 589.567 420.847C588.819 420.534 588.112 420.134 587.459 419.655C586.97 419.408 586.559 419.032 586.27 418.568C585.982 418.104 585.827 417.571 585.824 417.026C585.618 416.003 585.221 415.028 584.651 414.152C584.034 413.014 583.479 411.912 583.879 410.746C584.279 409.581 585.515 408.876 585.933 407.737C586.125 406.951 586.178 406.138 586.087 405.334C586.051 404.928 586.115 404.519 586.273 404.143C586.431 403.766 586.679 403.434 586.996 403.175C588.059 402.47 589.349 403.355 590.63 403.708C591.078 403.854 591.557 403.885 592.02 403.798C592.429 403.652 592.83 403.483 593.22 403.292C595.209 402.497 597.454 403.934 598.562 405.741C599.671 407.548 600.107 409.698 601.061 411.595C601.387 412.331 601.897 412.972 602.542 413.457C602.862 413.7 603.242 413.852 603.641 413.898C604.041 413.944 604.446 413.882 604.813 413.719L605.904 416.149C606.458 417.396 607.03 418.634 607.594 419.881C608.312 421.471 609.148 423.188 610.756 423.892C611.474 424.199 612.273 424.263 613.009 424.516C613.802 424.797 614.509 425.278 615.059 425.911C615.61 426.545 615.987 427.309 616.153 428.13C616.199 428.68 616.296 429.224 616.444 429.756C617.061 431.41 619.169 431.78 620.741 432.647C621.638 433.155 622.389 433.883 622.922 434.762C623.084 434.963 623.185 435.206 623.212 435.462C623.24 435.718 623.193 435.977 623.076 436.207V436.207Z" fill="black"/>
<path d="M588.968 418.236C588.968 418.236 589.776 419.854 587.387 419.89C584.997 419.926 588.922 430.425 588.922 430.425L592.893 435.457L597.827 432.801L598.108 425.482L598.481 421.055C598.481 421.055 593.865 419.564 594.71 417.586C595.555 415.607 588.968 418.236 588.968 418.236Z" fill="#CD8359"/>
<path d="M603.297 461.063C603.297 461.063 606.204 463.918 609.611 460.16L606.994 457.404H603.696L603.297 461.063Z" fill="#BB6A00"/>
<path d="M608.512 457.892C609.03 459.293 609.71 460.63 610.538 461.876C611.392 462.78 612.727 469.195 610.946 468.472C609.166 467.749 605.759 462.355 605.559 461.434C605.4 460.259 605.306 459.077 605.277 457.892H608.512Z" fill="#A35C00"/>
<path d="M583.062 473.577L598.762 474.182L596.936 467.587L589.031 467.424L583.062 473.577Z" fill="#3F3D56"/>
<path d="M588.195 484.482C587.823 485.169 587.968 487.554 588.132 489.307C588.241 490.427 588.359 491.286 588.359 491.286C588.359 491.286 582.489 493.093 581.599 491.53C581.341 490.924 581.215 490.272 581.226 489.614C581.196 487.641 581.321 485.668 581.599 483.714C581.599 483.714 581.353 478.365 581.235 477.841C581.235 477.634 581.108 476.938 581.035 476.242C580.935 475.176 580.826 473.983 580.826 473.983L588.84 469.755C588.84 469.755 588.84 470.541 588.84 471.761C588.786 475.592 588.659 483.633 588.195 484.482Z" fill="#3F3D56"/>
<path d="M588.559 521.716H588.468C587.759 521.716 583.743 521.716 583.743 521.716L583.58 521.526C583.225 521.084 582.99 520.559 582.898 520C582.805 519.442 582.859 518.869 583.053 518.337C583.56 516.511 583.831 514.629 583.861 512.735C584.017 512.268 584.032 511.766 583.907 511.29C583.763 510.862 583.735 510.404 583.825 509.961C583.788 509.65 583.705 509.346 583.58 509.058C583.464 508.607 583.464 508.135 583.58 507.685C583.55 506.825 583.412 505.972 583.171 505.146C582.807 504.107 580.136 491.665 580.781 490.174C580.781 490.174 586.451 489.208 588.595 489.94L588.314 499.598C588.314 499.598 587.296 502.489 588.15 503.257C589.004 504.025 588.15 506.402 588.15 506.402C588.15 506.402 588.023 506.844 588.75 508.326C589.477 509.808 588.75 510.504 588.75 510.504V513.359C588.434 514.51 588.462 515.729 588.832 516.864C589.577 518.427 588.841 521.671 588.559 521.716Z" fill="#3F3D56"/>
<path d="M599.68 484.482C599.308 485.169 599.453 487.554 599.617 489.307C599.726 490.427 599.844 491.286 599.844 491.286C599.844 491.286 593.974 493.093 593.083 491.53C592.826 490.924 592.699 490.272 592.711 489.614C592.681 487.641 592.806 485.668 593.083 483.714C593.083 483.714 592.838 478.365 592.72 477.841C592.656 477.561 592.538 474.869 592.447 472.42C592.375 470.36 592.311 468.49 592.311 468.49L600.325 469.728C600.325 469.728 600.325 473.233 600.225 476.829C600.125 480.425 599.98 483.931 599.68 484.482Z" fill="#3F3D56"/>
<path d="M600.044 521.716H599.953C599.244 521.716 595.228 521.716 595.228 521.716L595.065 521.526C594.71 521.084 594.475 520.559 594.383 520C594.29 519.442 594.344 518.869 594.538 518.337C595.045 516.511 595.316 514.629 595.346 512.735C595.487 512.264 595.487 511.761 595.346 511.29C595.203 510.862 595.175 510.404 595.265 509.961C595.227 509.65 595.144 509.346 595.019 509.058C594.904 508.607 594.904 508.135 595.019 507.685C594.989 506.825 594.852 505.972 594.61 505.146C594.247 504.107 591.576 491.665 592.221 490.174C592.221 490.174 597.891 489.208 600.035 489.94L599.753 499.598C599.753 499.598 598.736 502.489 599.59 503.257C600.444 504.025 599.59 506.402 599.59 506.402C599.59 506.402 599.462 506.844 600.189 508.326C600.916 509.808 600.189 510.504 600.189 510.504V513.359C599.873 514.51 599.901 515.729 600.271 516.864C601.062 518.427 600.326 521.671 600.044 521.716Z" fill="#3F3D56"/>
<path opacity="0.1" d="M591.92 420.07C595.072 420.07 597.626 417.53 597.626 414.396C597.626 411.263 595.072 408.722 591.92 408.722C588.769 408.722 586.214 411.263 586.214 414.396C586.214 417.53 588.769 420.07 591.92 420.07Z" fill="black"/>
<path d="M592.12 419.89C595.271 419.89 597.826 417.349 597.826 414.216C597.826 411.082 595.271 408.542 592.12 408.542C588.969 408.542 586.414 411.082 586.414 414.216C586.414 417.349 588.969 419.89 592.12 419.89Z" fill="#D7895D"/>
<path d="M598.835 439.053C598.636 440.624 598.596 442.21 598.717 443.788C602.406 446.815 601.716 453.166 601.716 453.166C601.716 453.166 604.55 466.023 603.914 467.216C603.278 468.409 605.286 475.546 605.286 475.546C603.598 475.866 601.888 476.062 600.171 476.134C599.565 476.154 598.958 476.136 598.354 476.08C597.944 476.094 597.535 476.021 597.156 475.865C596.776 475.709 596.435 475.474 596.155 475.176C595.019 473.206 590.122 470.261 590.122 470.261C590.122 470.261 587.032 472.113 584.143 473.794C583.234 474.336 582.326 474.86 581.545 475.294C580.919 475.624 580.226 475.813 579.518 475.845C576.084 476.098 571.504 473.956 572.25 473.206C573.158 472.303 577.556 456.04 577.556 456.04C577.556 456.04 579.782 445.974 581.726 444.574C582.066 444.317 582.319 443.965 582.453 443.562C583.116 441.755 582.008 438.773 582.008 438.773C582.008 438.773 575.739 431.084 576.02 430.642C576.233 429.721 576.328 428.776 576.302 427.832C576.302 427.832 577.074 424.082 577.51 422.275C577.946 420.468 581.145 420.016 582.053 420.179C582.962 420.342 585.288 420.179 586.178 419.456C587.069 418.733 588.568 419.736 588.568 419.736L592.048 421.471L595.364 419.528C595.364 419.528 598.69 419.7 598.999 420.143C599.308 420.585 603.651 421.426 603.651 421.426C605.877 422.917 605.795 430 605.795 430C605.795 430 600.453 434.626 599.362 437.002C599.1 437.661 598.922 438.35 598.835 439.053Z" fill="#FF9100"/>
<path d="M604.632 428.979L605.84 429.946L607.094 441.177L608.357 452.471C608.357 452.471 608.839 453.6 609.266 453.483C609.693 453.365 609.629 460.16 609.629 460.16C609.629 460.16 604.977 457.313 603.314 461.063L602.015 451.965C602.015 451.965 600.352 442.667 600.398 441.945C600.443 441.222 599.544 433.37 599.544 433.37L604.632 428.979Z" fill="#FF9100"/>
<path d="M576.947 429.503L576.038 430.587C576.038 430.587 576.12 435.259 575.43 436.388C574.739 437.517 577.329 444.113 578.301 443.716C579.273 443.318 581.463 433.009 581.463 432.873C581.463 432.738 576.947 429.503 576.947 429.503Z" fill="#FF9100"/>
<path d="M576.865 436.144C576.865 436.144 574.03 438.999 574.23 440.373C574.43 441.746 577.147 446.038 581.036 443.734C581.036 443.734 584.634 436.993 576.865 436.144Z" fill="#D17700"/>
<path opacity="0.1" d="M588.468 521.725C587.759 521.725 583.743 521.725 583.743 521.725L583.58 521.536C584.606 521.183 586.823 520.659 588.468 521.725Z" fill="black"/>
<path opacity="0.1" d="M599.952 521.725C599.244 521.725 595.228 521.725 595.228 521.725L595.064 521.536C596.091 521.183 598.308 520.659 599.952 521.725Z" fill="black"/>
<path d="M587.868 410.638C588.052 410.619 588.237 410.638 588.413 410.692C588.672 410.817 588.904 410.992 589.095 411.207C589.413 411.468 589.792 411.645 590.197 411.722C590.601 411.799 591.019 411.775 591.412 411.65C591.7 411.519 592.006 411.434 592.32 411.397C592.553 411.414 592.776 411.491 592.971 411.619C593.165 411.747 593.322 411.922 593.429 412.128C593.665 412.526 593.792 412.978 594.001 413.384C594.092 413.597 594.227 413.787 594.398 413.943C594.568 414.099 594.771 414.217 594.992 414.288C595.205 414.297 595.414 414.346 595.609 414.432C595.735 414.53 595.83 414.662 595.882 414.812C596.264 415.625 596.563 416.619 597.372 416.989C597.657 417.12 597.967 417.191 598.281 417.197C598.612 417.219 598.943 417.157 599.244 417.016C599.542 416.849 599.79 416.606 599.962 416.312C600.42 415.444 600.573 414.448 600.398 413.484C600.258 412.265 599.828 411.098 599.144 410.077C598.422 409.049 597.439 408.229 596.294 407.702C595.15 407.175 593.885 406.959 592.629 407.078C592.191 407.134 591.757 407.219 591.33 407.331C589.75 407.673 588.336 408.544 587.323 409.797C587.097 410.116 586.848 410.418 586.578 410.701C587.014 410.683 587.441 410.647 587.868 410.638Z" fill="#3F3D56"/>
<path opacity="0.1" d="M587.868 410.638C588.052 410.619 588.237 410.638 588.413 410.692C588.672 410.817 588.904 410.992 589.095 411.207C589.413 411.468 589.792 411.645 590.197 411.722C590.601 411.799 591.019 411.775 591.412 411.65C591.7 411.519 592.006 411.434 592.32 411.397C592.553 411.414 592.776 411.491 592.971 411.619C593.165 411.747 593.322 411.922 593.429 412.128C593.665 412.526 593.792 412.978 594.001 413.384C594.092 413.597 594.227 413.787 594.398 413.943C594.568 414.099 594.771 414.217 594.992 414.288C595.205 414.297 595.414 414.346 595.609 414.432C595.735 414.53 595.83 414.662 595.882 414.812C596.264 415.625 596.563 416.619 597.372 416.989C597.657 417.12 597.967 417.191 598.281 417.197C598.612 417.219 598.943 417.157 599.244 417.016C599.542 416.849 599.79 416.606 599.962 416.312C600.42 415.444 600.573 414.448 600.398 413.484C600.258 412.265 599.828 411.098 599.144 410.077C598.422 409.049 597.439 408.229 596.294 407.702C595.15 407.175 593.885 406.959 592.629 407.078C592.191 407.134 591.757 407.219 591.33 407.331C589.75 407.673 588.336 408.544 587.323 409.797C587.097 410.116 586.848 410.418 586.578 410.701C587.014 410.683 587.441 410.647 587.868 410.638Z" fill="black"/>
<path opacity="0.1" d="M581.68 424.154C581.68 424.154 581.962 426.404 580.99 426.964C580.018 427.524 581.68 424.154 581.68 424.154Z" fill="black"/>
<path opacity="0.1" d="M586.742 421.516C586.742 421.516 583.316 421.733 583.298 422.221C583.28 422.708 586.742 421.516 586.742 421.516Z" fill="black"/>
<path d="M580.381 426.467H578.01C577.478 426.467 577.047 426.896 577.047 427.425V434.084C577.047 434.613 577.478 435.042 578.01 435.042H580.381C580.913 435.042 581.345 434.613 581.345 434.084V427.425C581.345 426.896 580.913 426.467 580.381 426.467Z" fill="#3F3D56"/>
<path d="M579.055 429.629C579.411 429.629 579.7 429.342 579.7 428.988C579.7 428.634 579.411 428.347 579.055 428.347C578.698 428.347 578.41 428.634 578.41 428.988C578.41 429.342 578.698 429.629 579.055 429.629Z" fill="#3F3D56"/>
<path opacity="0.7" d="M580.381 426.467H578.01C577.478 426.467 577.047 426.896 577.047 427.425V434.084C577.047 434.613 577.478 435.042 578.01 435.042H580.381C580.913 435.042 581.345 434.613 581.345 434.084V427.425C581.345 426.896 580.913 426.467 580.381 426.467Z" fill="#FF9100"/>
<path d="M577.101 439.821C577.101 439.821 577.819 436.487 576.865 435.43C575.911 434.373 576.211 428.835 577.674 428.952C579.136 429.069 581.308 433.47 580.954 434.373C580.599 435.277 579.209 440.056 579.209 440.056L577.101 439.821Z" fill="#FF9100"/>
<path d="M94.3864 117.527C94.9484 117.527 95.4041 117.074 95.4041 116.515C95.4041 115.956 94.9484 115.503 94.3864 115.503C93.8244 115.503 93.3688 115.956 93.3688 116.515C93.3688 117.074 93.8244 117.527 94.3864 117.527Z" fill="white"/>
<path d="M203.11 95.0112C203.672 95.0112 204.127 94.5581 204.127 93.9993C204.127 93.4404 203.672 92.9873 203.11 92.9873C202.548 92.9873 202.092 93.4404 202.092 93.9993C202.092 94.5581 202.548 95.0112 203.11 95.0112Z" fill="white"/>
<path d="M694.457 96.3123C695.019 96.3123 695.474 95.8592 695.474 95.3003C695.474 94.7415 695.019 94.2884 694.457 94.2884C693.895 94.2884 693.439 94.7415 693.439 95.3003C693.439 95.8592 693.895 96.3123 694.457 96.3123Z" fill="white"/>
<path d="M94.3864 162.161C94.9484 162.161 95.4041 161.708 95.4041 161.149C95.4041 160.59 94.9484 160.137 94.3864 160.137C93.8244 160.137 93.3688 160.59 93.3688 161.149C93.3688 161.708 93.8244 162.161 94.3864 162.161Z" fill="white"/>
<path d="M727.049 131.522C727.611 131.522 728.067 131.069 728.067 130.51C728.067 129.952 727.611 129.499 727.049 129.499C726.487 129.499 726.031 129.952 726.031 130.51C726.031 131.069 726.487 131.522 727.049 131.522Z" fill="white"/>
<path d="M735.462 192.131C736.024 192.131 736.48 191.677 736.48 191.119C736.48 190.56 736.024 190.107 735.462 190.107C734.9 190.107 734.445 190.56 734.445 191.119C734.445 191.677 734.9 192.131 735.462 192.131Z" fill="white"/>
<path d="M938.127 121.62C938.689 121.62 939.144 121.167 939.144 120.608C939.144 120.049 938.689 119.596 938.127 119.596C937.565 119.596 937.109 120.049 937.109 120.608C937.109 121.167 937.565 121.62 938.127 121.62Z" fill="white"/>
<path d="M326.217 75.5313C326.779 75.5313 327.234 75.0783 327.234 74.5194C327.234 73.9605 326.779 73.5074 326.217 73.5074C325.655 73.5074 325.199 73.9605 325.199 74.5194C325.199 75.0783 325.655 75.5313 326.217 75.5313Z" fill="white"/>
<path d="M809.014 85.9218C809.576 85.9218 810.032 85.4687 810.032 84.9099C810.032 84.351 809.576 83.8979 809.014 83.8979C808.452 83.8979 807.996 84.351 807.996 84.9099C807.996 85.4687 808.452 85.9218 809.014 85.9218Z" fill="white"/>
<path d="M712.048 255.377C712.61 255.377 713.065 254.924 713.065 254.365C713.065 253.806 712.61 253.353 712.048 253.353C711.486 253.353 711.03 253.806 711.03 254.365C711.03 254.924 711.486 255.377 712.048 255.377Z" fill="white"/>
<path d="M202.084 296.623C202.646 296.623 203.101 296.169 203.101 295.611C203.101 295.052 202.646 294.599 202.084 294.599C201.522 294.599 201.066 295.052 201.066 295.611C201.066 296.169 201.522 296.623 202.084 296.623Z" fill="white"/>
<path d="M726.031 265.614C726.593 265.614 727.048 265.161 727.048 264.602C727.048 264.043 726.593 263.59 726.031 263.59C725.468 263.59 725.013 264.043 725.013 264.602C725.013 265.161 725.468 265.614 726.031 265.614Z" fill="white"/>
<path d="M972.318 191.019C972.88 191.019 973.335 190.566 973.335 190.007C973.335 189.448 972.88 188.995 972.318 188.995C971.756 188.995 971.3 189.448 971.3 190.007C971.3 190.566 971.756 191.019 972.318 191.019Z" fill="white"/>
<path d="M289.346 152.267C289.908 152.267 290.364 151.814 290.364 151.255C290.364 150.696 289.908 150.243 289.346 150.243C288.784 150.243 288.329 150.696 288.329 151.255C288.329 151.814 288.784 152.267 289.346 152.267Z" fill="white"/>
<circle opacity="0.2" cx="819" cy="227" r="47" fill="#FF9100"/>
<defs>
<linearGradient id="paint0_linear" x1="528.499" y1="659.232" x2="528.499" y2="0.99975" gradientUnits="userSpaceOnUse">
<stop stop-opacity="0.2"/>
<stop offset="0.48" stop-color="white" stop-opacity="0"/>
<stop offset="1" stop-color="white" stop-opacity="0"/>
</linearGradient>
<radialGradient id="paint1_radial" cx="0" cy="0" r="1" gradientUnits="userSpaceOnUse" gradientTransform="translate(819.067 391.311) rotate(-90) scale(180.811 2.0672)">
<stop stop-color="#F0F0F0"/>
<stop offset="1" stop-color="#3F3D56" stop-opacity="0"/>
</radialGradient>
<radialGradient id="paint2_radial" cx="0" cy="0" r="1" gradientUnits="userSpaceOnUse" gradientTransform="translate(818.156 544.388) rotate(90) scale(25.1923 7.74124)">
<stop stop-color="#A7A7A7"/>
<stop offset="1" stop-color="#E2E2E2" stop-opacity="0.3"/>
</radialGradient>
</defs>
</svg>
